G04 #@! TF.FileFunction,Copper,L2,Bot,Mixed*
%FSLAX46Y46*%
G04 Gerber Fmt 4.6, Leading zero omitted, Abs format (unit mm)*
G04 Created by KiCad (PCBNEW 4.0.1-3.201512221401+6198~38~ubuntu15.10.1-stable) date Mon 11 Jan 2016 07:04:30 PM EST*
%MOMM*%
G01*
G04 APERTURE LIST*
%ADD10C,0.150000*%
%ADD11R,1.300000X1.300000*%
%ADD12C,1.300000*%
%ADD13R,2.000000X2.000000*%
%ADD14C,2.000000*%
%ADD15C,1.998980*%
%ADD16R,1.998980X1.998980*%
%ADD17R,2.032000X1.727200*%
%ADD18O,2.032000X1.727200*%
%ADD19O,0.899160X1.501140*%
%ADD20O,1.600000X1.600000*%
%ADD21C,1.397000*%
%ADD22C,2.300000*%
%ADD23R,1.200000X1.200000*%
%ADD24C,1.200000*%
%ADD25R,1.524000X1.524000*%
%ADD26C,1.524000*%
%ADD27C,1.778000*%
%ADD28R,1.778000X1.778000*%
%ADD29C,1.750000*%
%ADD30C,2.500000*%
%ADD31R,1.727200X1.727200*%
%ADD32O,1.727200X1.727200*%
%ADD33C,0.889000*%
%ADD34C,0.254000*%
%ADD35C,1.000000*%
%ADD36C,0.500000*%
%ADD37C,1.500000*%
%ADD38C,2.000000*%
G04 APERTURE END LIST*
D10*
D11*
X156210000Y-130770000D03*
D12*
X156210000Y-128270000D03*
D11*
X138430000Y-130770000D03*
D12*
X138430000Y-128270000D03*
D13*
X156210000Y-123190000D03*
D14*
X156210000Y-125730000D03*
D13*
X138430000Y-123190000D03*
D14*
X138430000Y-125730000D03*
D13*
X169100500Y-92456000D03*
D14*
X169100500Y-94996000D03*
D13*
X169100500Y-98425000D03*
D14*
X169100500Y-100965000D03*
D15*
X123825000Y-107447080D03*
D16*
X133985000Y-107447080D03*
D15*
X123825000Y-110492540D03*
D16*
X133985000Y-110492540D03*
D15*
X171323000Y-125730000D03*
D16*
X161163000Y-125730000D03*
D17*
X118745000Y-114681000D03*
D18*
X118745000Y-112141000D03*
X118745000Y-109601000D03*
X118745000Y-107061000D03*
X118745000Y-104521000D03*
D17*
X170878500Y-121221500D03*
D18*
X170878500Y-118681500D03*
X170878500Y-116141500D03*
D17*
X167322500Y-121221500D03*
D18*
X167322500Y-118681500D03*
X167322500Y-116141500D03*
D19*
X163068000Y-92773500D03*
X161798000Y-92773500D03*
X164338000Y-92773500D03*
X157099000Y-92773500D03*
X155829000Y-92773500D03*
X158369000Y-92773500D03*
X125920500Y-93027500D03*
X124650500Y-93027500D03*
X127190500Y-93027500D03*
X130302000Y-124460000D03*
X129032000Y-124460000D03*
X131572000Y-124460000D03*
D20*
X134112000Y-103251000D03*
X134112000Y-100711000D03*
X134112000Y-98171000D03*
X126492000Y-98171000D03*
X126492000Y-100711000D03*
X126492000Y-103251000D03*
X133985000Y-120142000D03*
X133985000Y-117602000D03*
X133985000Y-115062000D03*
X126365000Y-115062000D03*
X126365000Y-117602000D03*
X126365000Y-120142000D03*
X101600000Y-134112000D03*
X104140000Y-134112000D03*
X106680000Y-134112000D03*
X109220000Y-134112000D03*
X109220000Y-126492000D03*
X106680000Y-126492000D03*
X104140000Y-126492000D03*
X101600000Y-126492000D03*
D21*
X106426000Y-121158000D03*
X106426000Y-123698000D03*
X103378000Y-121158000D03*
X103378000Y-123698000D03*
X100330000Y-121158000D03*
X100330000Y-123698000D03*
X109474000Y-121158000D03*
X109474000Y-123698000D03*
X112522000Y-121158000D03*
X112522000Y-123698000D03*
X166878000Y-130810000D03*
X166878000Y-128270000D03*
X133096000Y-130810000D03*
X133096000Y-128270000D03*
X145986500Y-93980000D03*
X145986500Y-91440000D03*
X149098000Y-93980000D03*
X149098000Y-91440000D03*
X169100500Y-111252000D03*
X169100500Y-108712000D03*
X152209500Y-93980000D03*
X152209500Y-91440000D03*
X142875000Y-93980000D03*
X142875000Y-91440000D03*
X169100500Y-106172000D03*
X169100500Y-103632000D03*
X127000000Y-130810000D03*
X127000000Y-128270000D03*
X130048000Y-130810000D03*
X130048000Y-128270000D03*
X130619500Y-93980000D03*
X130619500Y-91440000D03*
X136779000Y-93980000D03*
X136779000Y-91440000D03*
X133731000Y-93980000D03*
X133731000Y-91440000D03*
X139827000Y-93980000D03*
X139827000Y-91440000D03*
X160655000Y-130810000D03*
X160655000Y-128270000D03*
X163766500Y-130810000D03*
X163766500Y-128270000D03*
X121793000Y-93980000D03*
X121793000Y-91440000D03*
D22*
X176930000Y-130810000D03*
X176930000Y-135890000D03*
X176930000Y-116840000D03*
X176930000Y-121920000D03*
X176930000Y-88900000D03*
X176930000Y-93980000D03*
X176930000Y-100965000D03*
X176930000Y-106045000D03*
D23*
X97536000Y-128524000D03*
D24*
X97536000Y-131024000D03*
D25*
X114173000Y-89535000D03*
D26*
X114173000Y-86995000D03*
X116713000Y-89535000D03*
X116713000Y-86995000D03*
X119253000Y-89535000D03*
X119253000Y-86995000D03*
X121793000Y-89535000D03*
X121793000Y-86995000D03*
X124333000Y-89535000D03*
X124333000Y-86995000D03*
X126873000Y-89535000D03*
X126873000Y-86995000D03*
X129413000Y-89535000D03*
X129413000Y-86995000D03*
X131953000Y-89535000D03*
X131953000Y-86995000D03*
X134493000Y-89535000D03*
X134493000Y-86995000D03*
X137033000Y-89535000D03*
X137033000Y-86995000D03*
X139573000Y-89535000D03*
X139573000Y-86995000D03*
X142113000Y-89535000D03*
X142113000Y-86995000D03*
X144653000Y-89535000D03*
X144653000Y-86995000D03*
X147193000Y-89535000D03*
X147193000Y-86995000D03*
X149733000Y-89535000D03*
X149733000Y-86995000D03*
X152273000Y-89535000D03*
X152273000Y-86995000D03*
X154813000Y-89535000D03*
X154813000Y-86995000D03*
X157353000Y-89535000D03*
X157353000Y-86995000D03*
X159893000Y-89535000D03*
X159893000Y-86995000D03*
X162433000Y-89535000D03*
X162433000Y-86995000D03*
X164973000Y-89535000D03*
X164973000Y-86995000D03*
X167513000Y-89535000D03*
X167513000Y-86995000D03*
X170053000Y-89535000D03*
X170053000Y-86995000D03*
X114173000Y-135255000D03*
X116713000Y-137795000D03*
X116713000Y-135255000D03*
X119253000Y-137795000D03*
X119253000Y-135255000D03*
X121793000Y-137795000D03*
X121793000Y-135255000D03*
X124333000Y-137795000D03*
X124333000Y-135255000D03*
X126873000Y-137795000D03*
X126873000Y-135255000D03*
X129413000Y-137795000D03*
X129413000Y-135255000D03*
X131953000Y-137795000D03*
X131953000Y-135255000D03*
X134493000Y-137795000D03*
X134493000Y-135255000D03*
X137033000Y-137795000D03*
X137033000Y-135255000D03*
X139573000Y-137795000D03*
X139573000Y-135255000D03*
X142113000Y-137795000D03*
X142113000Y-135255000D03*
X144653000Y-137795000D03*
X144653000Y-135255000D03*
X147193000Y-137795000D03*
X147193000Y-135255000D03*
X149733000Y-137795000D03*
X149733000Y-135255000D03*
X152273000Y-137795000D03*
X152273000Y-135255000D03*
X154813000Y-137795000D03*
X154813000Y-135255000D03*
X157353000Y-137795000D03*
X157353000Y-135255000D03*
X159893000Y-137795000D03*
X159893000Y-135255000D03*
X162433000Y-137795000D03*
X162433000Y-135255000D03*
X164973000Y-137795000D03*
X164973000Y-135255000D03*
X167513000Y-137795000D03*
X167513000Y-135255000D03*
X170053000Y-137795000D03*
X170053000Y-135255000D03*
D25*
X114173000Y-137795000D03*
D27*
X149860000Y-130810000D03*
D28*
X147320000Y-130810000D03*
D27*
X144780000Y-130810000D03*
D29*
X101818000Y-96595000D03*
X97318000Y-96595000D03*
X101818000Y-90095000D03*
X97318000Y-90095000D03*
X110708000Y-96595000D03*
X106208000Y-96595000D03*
X110708000Y-90095000D03*
X106208000Y-90095000D03*
D30*
X138195000Y-105925000D03*
X153195000Y-105925000D03*
X158195000Y-105925000D03*
X163195000Y-105925000D03*
X163195000Y-98425000D03*
X158195000Y-98425000D03*
X153195000Y-98425000D03*
X138195000Y-98425000D03*
X138176000Y-119750000D03*
X153176000Y-119750000D03*
X158176000Y-119750000D03*
X163176000Y-119750000D03*
X163176000Y-112250000D03*
X158176000Y-112250000D03*
X153176000Y-112250000D03*
X138176000Y-112250000D03*
D13*
X122872500Y-102044500D03*
D14*
X122872500Y-99504500D03*
D13*
X122872500Y-116205000D03*
D14*
X122872500Y-118745000D03*
D31*
X115824000Y-131572000D03*
D32*
X113284000Y-131572000D03*
X115824000Y-129032000D03*
X113284000Y-129032000D03*
D33*
X130556000Y-107569000D03*
X124904500Y-122428000D03*
X116332000Y-126936498D03*
X116218028Y-120918418D03*
X115125504Y-126936500D03*
X115100550Y-120901066D03*
D34*
X101600000Y-134112000D02*
X105092500Y-137604500D01*
X105092500Y-137604500D02*
X110172500Y-137604500D01*
X110172500Y-137604500D02*
X112077500Y-135699500D01*
X112077500Y-135699500D02*
X112077500Y-132778500D01*
X112077500Y-132778500D02*
X112801390Y-132054610D01*
X112801390Y-132054610D02*
X112801390Y-131572000D01*
X100330000Y-123698000D02*
X100330000Y-132842000D01*
X100330000Y-132842000D02*
X101600000Y-134112000D01*
X113284000Y-131572000D02*
X113284000Y-132080000D01*
X109537500Y-136398000D02*
X106426000Y-136398000D01*
X106426000Y-136398000D02*
X104140000Y-134112000D01*
X110934500Y-135001000D02*
X109537500Y-136398000D01*
X110934500Y-131381500D02*
X110934500Y-135001000D01*
X113284000Y-129032000D02*
X110934500Y-131381500D01*
X103378000Y-123698000D02*
X103378000Y-124685828D01*
X103378000Y-124685828D02*
X102984399Y-125079429D01*
X103340001Y-133312001D02*
X104140000Y-134112000D01*
X102984399Y-125079429D02*
X102984399Y-132956399D01*
X102984399Y-132956399D02*
X103340001Y-133312001D01*
X106680000Y-134112000D02*
X105295601Y-132727601D01*
X105295601Y-132727601D02*
X105295601Y-124828399D01*
X105295601Y-124828399D02*
X106426000Y-123698000D01*
X112522000Y-123698000D02*
X109728000Y-126492000D01*
X109728000Y-126492000D02*
X109220000Y-126492000D01*
X109474000Y-126238000D02*
X109220000Y-126492000D01*
D35*
X121793000Y-135255000D02*
X121793000Y-137795000D01*
D36*
X118719600Y-115062000D02*
X118872000Y-115062000D01*
X121729500Y-97536000D02*
X118745000Y-100520500D01*
X118745000Y-100520500D02*
X118745000Y-104521000D01*
X123317000Y-97536000D02*
X121729500Y-97536000D01*
X126492000Y-100711000D02*
X123317000Y-97536000D01*
X112522000Y-121158000D02*
X113855500Y-119824500D01*
X113855500Y-119824500D02*
X115760500Y-119824500D01*
X115760500Y-119824500D02*
X116459000Y-119126000D01*
X116459000Y-119126000D02*
X117474999Y-119126000D01*
X121094500Y-105354500D02*
X121094500Y-115506499D01*
X121094500Y-115506499D02*
X117474999Y-119126000D01*
X118745000Y-104521000D02*
X120261000Y-104521000D01*
X120261000Y-104521000D02*
X121094500Y-105354500D01*
X126365000Y-117602000D02*
X126365000Y-118046500D01*
X126365000Y-118046500D02*
X123634500Y-120777000D01*
X117474999Y-123316999D02*
X117474999Y-119126000D01*
X101600000Y-126492000D02*
X101600000Y-122936000D01*
X101600000Y-122936000D02*
X103378000Y-121158000D01*
X117474999Y-123316999D02*
X117475000Y-123316998D01*
X117474999Y-134493001D02*
X117474999Y-126492000D01*
X117474999Y-126492000D02*
X117474999Y-123316999D01*
X116713000Y-135255000D02*
X117474999Y-134493001D01*
X116713000Y-137795000D02*
X116713000Y-136717370D01*
X116713000Y-136717370D02*
X116713000Y-135255000D01*
X109474000Y-121158000D02*
X110461828Y-121158000D01*
X110461828Y-121158000D02*
X112522000Y-121158000D01*
X106426000Y-121158000D02*
X109474000Y-121158000D01*
X103378000Y-121158000D02*
X104365828Y-121158000D01*
X104365828Y-121158000D02*
X106426000Y-121158000D01*
X100330000Y-121158000D02*
X103378000Y-121158000D01*
X97536000Y-128524000D02*
X97536000Y-123952000D01*
X97536000Y-123952000D02*
X100330000Y-121158000D01*
X123634500Y-120777000D02*
X119125999Y-120777000D01*
X119125999Y-120777000D02*
X117474999Y-119126000D01*
X171894500Y-107978172D02*
X171894500Y-109445828D01*
X171894500Y-109445828D02*
X170088328Y-111252000D01*
X170088328Y-111252000D02*
X169100500Y-111252000D01*
X169100500Y-106172000D02*
X170088328Y-106172000D01*
X170088328Y-106172000D02*
X171894500Y-107978172D01*
D37*
X166303479Y-114049290D02*
X173037500Y-114049290D01*
X173037500Y-114049290D02*
X174371000Y-114049290D01*
D36*
X170088328Y-111252000D02*
X172885618Y-114049290D01*
D37*
X172885618Y-114049290D02*
X173037500Y-114049290D01*
X173802790Y-114049290D02*
X174371000Y-114049290D01*
X174371000Y-114049290D02*
X177659620Y-114049290D01*
X179308601Y-128431399D02*
X179308601Y-116713000D01*
X167322500Y-118681500D02*
X166751269Y-118681500D01*
X179308601Y-115698271D02*
X179308601Y-116713000D01*
X165077890Y-115274879D02*
X166303479Y-114049290D01*
X165077890Y-117008121D02*
X165077890Y-115274879D01*
X166751269Y-118681500D02*
X165077890Y-117008121D01*
D36*
X179308601Y-116713000D02*
X179308601Y-113030000D01*
D37*
X177659620Y-114049290D02*
X179308601Y-115698271D01*
D38*
X149860000Y-130810000D02*
X156170000Y-130810000D01*
X156170000Y-130810000D02*
X156210000Y-130770000D01*
X156210000Y-130770000D02*
X160615000Y-130770000D01*
X160615000Y-130770000D02*
X160655000Y-130810000D01*
X163766500Y-130810000D02*
X160655000Y-130810000D01*
X163766500Y-130810000D02*
X166878000Y-130810000D01*
X166878000Y-130810000D02*
X168275000Y-130810000D01*
X168275000Y-130810000D02*
X170815000Y-130810000D01*
X176930000Y-130810000D02*
X170815000Y-130810000D01*
D36*
X179308601Y-113030000D02*
X179308601Y-103505000D01*
X179308601Y-103505000D02*
X179308601Y-91278601D01*
X176930000Y-100965000D02*
X179308601Y-103343601D01*
D37*
X176930000Y-130810000D02*
X179308601Y-128431399D01*
D36*
X179308601Y-91278601D02*
X178079999Y-90049999D01*
X178079999Y-90049999D02*
X176930000Y-88900000D01*
X133985000Y-110492540D02*
X133985000Y-107447080D01*
X138195000Y-105925000D02*
X135507080Y-105925000D01*
X135507080Y-105925000D02*
X133985000Y-107447080D01*
D38*
X138430000Y-130770000D02*
X144740000Y-130770000D01*
X144740000Y-130770000D02*
X144780000Y-130810000D01*
D36*
X138195000Y-105925000D02*
X144780000Y-112510000D01*
X144780000Y-112510000D02*
X144780000Y-122809000D01*
X144780000Y-130810000D02*
X144780000Y-122809000D01*
X144780000Y-122809000D02*
X141721000Y-119750000D01*
X141721000Y-119750000D02*
X138176000Y-119750000D01*
D38*
X138430000Y-130770000D02*
X133136000Y-130770000D01*
X133136000Y-130770000D02*
X133096000Y-130810000D01*
X130048000Y-130810000D02*
X133096000Y-130810000D01*
X119253000Y-137795000D02*
X119253000Y-135255000D01*
X121920000Y-130810000D02*
X119253000Y-133477000D01*
X119253000Y-133477000D02*
X119253000Y-135255000D01*
X127000000Y-130810000D02*
X121920000Y-130810000D01*
X130048000Y-130810000D02*
X127000000Y-130810000D01*
D34*
X138430000Y-125730000D02*
X135636000Y-125730000D01*
X135636000Y-125730000D02*
X133096000Y-128270000D01*
X161798000Y-92773500D02*
X161798000Y-93074490D01*
X161798000Y-93074490D02*
X162603190Y-93879680D01*
X162603190Y-93879680D02*
X166422820Y-93879680D01*
X167846500Y-92456000D02*
X169100500Y-92456000D01*
X166422820Y-93879680D02*
X167846500Y-92456000D01*
X169100500Y-92456000D02*
X175406000Y-92456000D01*
X175406000Y-92456000D02*
X176930000Y-93980000D01*
X169100500Y-108712000D02*
X168112672Y-108712000D01*
X168112672Y-108712000D02*
X167744899Y-108344227D01*
X167744899Y-108344227D02*
X167744899Y-96351601D01*
X167744899Y-96351601D02*
X168100501Y-95995999D01*
X168100501Y-95995999D02*
X169100500Y-94996000D01*
X176930000Y-106045000D02*
X169310000Y-98425000D01*
X169310000Y-98425000D02*
X169100500Y-98425000D01*
X169100500Y-100965000D02*
X169100500Y-102379213D01*
X169100500Y-102379213D02*
X169100500Y-103632000D01*
X130434080Y-107447080D02*
X130556000Y-107569000D01*
X123825000Y-107447080D02*
X130434080Y-107447080D01*
X122872500Y-102044500D02*
X122872500Y-106494580D01*
X122872500Y-106494580D02*
X123825000Y-107447080D01*
X124650500Y-93027500D02*
X124650500Y-94032070D01*
X136945001Y-97175001D02*
X138195000Y-98425000D01*
X124650500Y-94032070D02*
X127633829Y-97015399D01*
X127633829Y-97015399D02*
X136785399Y-97015399D01*
X136785399Y-97015399D02*
X136945001Y-97175001D01*
X127000000Y-128270000D02*
X124904500Y-126174500D01*
X124904500Y-126174500D02*
X124904500Y-122428000D01*
X122872500Y-116205000D02*
X122872500Y-111445040D01*
X122872500Y-111445040D02*
X123825000Y-110492540D01*
X138176000Y-112250000D02*
X130683000Y-112250000D01*
X130683000Y-112250000D02*
X129685000Y-112250000D01*
X129032000Y-124460000D02*
X129032000Y-113901000D01*
X129032000Y-113901000D02*
X130683000Y-112250000D01*
X129685000Y-112250000D02*
X125582460Y-112250000D01*
X125582460Y-112250000D02*
X123825000Y-110492540D01*
X127825500Y-117352210D02*
X127825500Y-126047500D01*
X127825500Y-126047500D02*
X130048000Y-128270000D01*
X122872500Y-118745000D02*
X125171101Y-116446399D01*
X125171101Y-116446399D02*
X126919689Y-116446399D01*
X126919689Y-116446399D02*
X127825500Y-117352210D01*
D37*
X161163000Y-125730000D02*
X167576500Y-125730000D01*
X167576500Y-125730000D02*
X169804591Y-127958091D01*
X169804591Y-127958091D02*
X173349409Y-127958091D01*
X176930000Y-124377500D02*
X176930000Y-121920000D01*
X173349409Y-127958091D02*
X176930000Y-124377500D01*
X158176000Y-119750000D02*
X158176000Y-120944518D01*
X158176000Y-120944518D02*
X158438601Y-121207119D01*
X158438601Y-121207119D02*
X158438601Y-123005601D01*
X158438601Y-123005601D02*
X161163000Y-125730000D01*
X158027000Y-106239000D02*
X155697399Y-108568601D01*
X155697399Y-117271399D02*
X158176000Y-119750000D01*
X155697399Y-108568601D02*
X155697399Y-117271399D01*
D34*
X145986500Y-91440000D02*
X144932399Y-92494101D01*
X144932399Y-92494101D02*
X128498601Y-92494101D01*
X125450601Y-90652601D02*
X124333000Y-89535000D01*
X126657101Y-90652601D02*
X125450601Y-90652601D01*
X128498601Y-92494101D02*
X126657101Y-90652601D01*
X127127000Y-89281000D02*
X126873000Y-89535000D01*
X152209500Y-91440000D02*
X151155399Y-90385899D01*
X151155399Y-90385899D02*
X151155399Y-89303349D01*
X151155399Y-89303349D02*
X150269449Y-88417399D01*
X150269449Y-88417399D02*
X127990601Y-88417399D01*
X127990601Y-88417399D02*
X127127000Y-89281000D01*
X130619500Y-91440000D02*
X130619500Y-90868500D01*
X130619500Y-90868500D02*
X131953000Y-89535000D01*
X126492000Y-98171000D02*
X122682000Y-93980000D01*
X122682000Y-93980000D02*
X121793000Y-93980000D01*
X121793000Y-93980000D02*
X123215399Y-92557601D01*
X128876551Y-85877399D02*
X130835399Y-85877399D01*
X123215399Y-92557601D02*
X123215399Y-88998551D01*
X123215399Y-88998551D02*
X124101349Y-88112601D01*
X130835399Y-85877399D02*
X131191001Y-86233001D01*
X124101349Y-88112601D02*
X127409449Y-88112601D01*
X127409449Y-88112601D02*
X128295399Y-87226651D01*
X128295399Y-87226651D02*
X128295399Y-86458551D01*
X128295399Y-86458551D02*
X128876551Y-85877399D01*
X131191001Y-86233001D02*
X131953000Y-86995000D01*
X136779000Y-91440000D02*
X134874000Y-89535000D01*
X134874000Y-89535000D02*
X134493000Y-89535000D01*
X116218028Y-126822526D02*
X116332000Y-126936498D01*
X116218028Y-120918418D02*
X116218028Y-126822526D01*
X110708000Y-90095000D02*
X110708000Y-96595000D01*
X115100550Y-120901066D02*
X115100550Y-126911546D01*
X115100550Y-126911546D02*
X115125504Y-126936500D01*
X101818000Y-90095000D02*
X101818000Y-91332436D01*
X101818000Y-91332436D02*
X101818000Y-96595000D01*
D37*
X158176000Y-114017766D02*
X158176000Y-112250000D01*
X160620668Y-117440668D02*
X158176000Y-114996000D01*
X160654601Y-120896931D02*
X160654601Y-118888294D01*
X170878500Y-121756582D02*
X169133693Y-123501389D01*
X160620668Y-118854361D02*
X160620668Y-117440668D01*
X169133693Y-123501389D02*
X163259059Y-123501389D01*
X163259059Y-123501389D02*
X160654601Y-120896931D01*
X160654601Y-118888294D02*
X160620668Y-118854361D01*
X158176000Y-114996000D02*
X158176000Y-114017766D01*
X170878500Y-118681500D02*
X175088500Y-118681500D01*
X175088500Y-118681500D02*
X176930000Y-116840000D01*
X161777001Y-107488999D02*
X163027000Y-106239000D01*
X163176000Y-119750000D02*
X163176000Y-118257962D01*
X163176000Y-118257962D02*
X162849279Y-117931241D01*
X162849279Y-117931241D02*
X162849279Y-115591608D01*
X162849279Y-115591608D02*
X160697399Y-113439729D01*
X160697399Y-113439729D02*
X160697399Y-108568601D01*
X160697399Y-108568601D02*
X161777001Y-107488999D01*
X167322500Y-121221500D02*
X164647500Y-121221500D01*
X164647500Y-121221500D02*
X163176000Y-119750000D01*
X153176000Y-119750000D02*
X150697399Y-117271399D01*
X151945001Y-107174999D02*
X153195000Y-105925000D01*
X150697399Y-108422601D02*
X151945001Y-107174999D01*
X150697399Y-117271399D02*
X150697399Y-108422601D01*
D34*
X145986500Y-93980000D02*
X146974328Y-93980000D01*
X146974328Y-93980000D02*
X149098000Y-93980000D01*
X157099000Y-92773500D02*
X157099000Y-92472510D01*
X152336500Y-93980000D02*
X152209500Y-93980000D01*
X157099000Y-92472510D02*
X156293810Y-91667320D01*
X156293810Y-91667320D02*
X154649180Y-91667320D01*
X154649180Y-91667320D02*
X152336500Y-93980000D01*
X142875000Y-93980000D02*
X143929101Y-95034101D01*
X143929101Y-95034101D02*
X151155399Y-95034101D01*
X151155399Y-95034101D02*
X151511001Y-94678499D01*
X151511001Y-94678499D02*
X152209500Y-93980000D01*
X125920500Y-93027500D02*
X125920500Y-94032070D01*
X125920500Y-94032070D02*
X126566929Y-94678499D01*
X126566929Y-94678499D02*
X129921001Y-94678499D01*
X129921001Y-94678499D02*
X130619500Y-93980000D01*
X130619500Y-93980000D02*
X133731000Y-93980000D01*
X160655000Y-128270000D02*
X159667172Y-128270000D01*
X159667172Y-128270000D02*
X158482773Y-127085601D01*
X158482773Y-127085601D02*
X155559311Y-127085601D01*
X135624370Y-103251000D02*
X134112000Y-103251000D01*
X146135611Y-110944489D02*
X138442122Y-103251000D01*
X146135611Y-117661901D02*
X146135611Y-110944489D01*
X155559311Y-127085601D02*
X146135611Y-117661901D01*
X138442122Y-103251000D02*
X135624370Y-103251000D01*
X158195000Y-98425000D02*
X156427234Y-98425000D01*
X156427234Y-98425000D02*
X154141234Y-100711000D01*
X154141234Y-100711000D02*
X135624370Y-100711000D01*
X135624370Y-100711000D02*
X134112000Y-100711000D01*
M02*
