M48
;DRILL file {KiCad 4.0.1-3.201512221401+6198~38~ubuntu15.10.1-stable} date Mon 11 Jan 2016 07:04:12 PM EST
;FORMAT={-:-/ absolute / inch / decimal}
FMAT,2
INCH,TZ
T1C0.024
T2C0.025
T3C0.028
T4C0.031
T5C0.032
T6C0.039
T7C0.039
T8C0.040
T9C0.045
T10C0.050
T11C0.051
T12C0.059
%
G90
G05
M72
T1
X4.9075Y-3.6625
X4.9575Y-3.6625
X5.0075Y-3.6625
X5.08Y-4.9
X5.13Y-4.9
X5.18Y-4.9
X6.135Y-3.6525
X6.185Y-3.6525
X6.235Y-3.6525
X6.37Y-3.6525
X6.42Y-3.6525
X6.47Y-3.6525
T2
X4.5315Y-4.7599
X4.5325Y-4.9975
X4.5755Y-4.7606
X4.58Y-4.9975
X4.9175Y-4.82
X5.14Y-4.235
T3
X3.84Y-5.06
X3.84Y-5.1584
T4
X4.Y-4.98
X4.Y-5.28
X4.1Y-4.98
X4.1Y-5.28
X4.2Y-4.98
X4.2Y-5.28
X4.3Y-4.98
X4.3Y-5.28
X4.975Y-4.53
X4.975Y-4.63
X4.975Y-4.73
X4.98Y-3.865
X4.98Y-3.965
X4.98Y-4.065
X5.275Y-4.53
X5.275Y-4.63
X5.275Y-4.73
X5.28Y-3.865
X5.28Y-3.965
X5.28Y-4.065
X5.45Y-5.05
X5.45Y-5.1484
X6.15Y-5.05
X6.15Y-5.1484
T5
X3.95Y-4.77
X3.95Y-4.87
X4.07Y-4.77
X4.07Y-4.87
X4.19Y-4.77
X4.19Y-4.87
X4.31Y-4.77
X4.31Y-4.87
X4.43Y-4.77
X4.43Y-4.87
X4.795Y-3.6
X4.795Y-3.7
X5.Y-5.05
X5.Y-5.15
X5.12Y-5.05
X5.12Y-5.15
X5.1425Y-3.6
X5.1425Y-3.7
X5.24Y-5.05
X5.24Y-5.15
X5.265Y-3.6
X5.265Y-3.7
X5.385Y-3.6
X5.385Y-3.7
X5.505Y-3.6
X5.505Y-3.7
X5.625Y-3.6
X5.625Y-3.7
X5.7475Y-3.6
X5.7475Y-3.7
X5.87Y-3.6
X5.87Y-3.7
X5.9925Y-3.6
X5.9925Y-3.7
X6.325Y-5.05
X6.325Y-5.15
X6.4475Y-5.05
X6.4475Y-5.15
X6.57Y-5.05
X6.57Y-5.15
X6.6575Y-4.08
X6.6575Y-4.18
X6.6575Y-4.28
X6.6575Y-4.38
T6
X3.8314Y-3.547
X3.8314Y-3.803
X4.0086Y-3.547
X4.0086Y-3.803
X4.1814Y-3.547
X4.1814Y-3.803
X4.3586Y-3.547
X4.3586Y-3.803
T7
X4.8375Y-3.9175
X4.8375Y-4.0175
X4.8375Y-4.575
X4.8375Y-4.675
X5.275Y-4.2302
X5.275Y-4.3501
X5.45Y-4.85
X5.45Y-4.95
X6.15Y-4.85
X6.15Y-4.95
X6.345Y-4.95
X6.6575Y-3.64
X6.6575Y-3.74
X6.6575Y-3.875
X6.6575Y-3.975
T8
X4.46Y-5.08
X4.46Y-5.18
X4.495Y-3.425
X4.495Y-3.525
X4.495Y-5.325
X4.495Y-5.425
X4.56Y-5.08
X4.56Y-5.18
X4.595Y-3.425
X4.595Y-3.525
X4.595Y-5.325
X4.595Y-5.425
X4.675Y-4.115
X4.675Y-4.215
X4.675Y-4.315
X4.675Y-4.415
X4.675Y-4.515
X4.695Y-3.425
X4.695Y-3.525
X4.695Y-5.325
X4.695Y-5.425
X4.795Y-3.425
X4.795Y-3.525
X4.795Y-5.325
X4.795Y-5.425
X4.895Y-3.425
X4.895Y-3.525
X4.895Y-5.325
X4.895Y-5.425
X4.995Y-3.425
X4.995Y-3.525
X4.995Y-5.325
X4.995Y-5.425
X5.095Y-3.425
X5.095Y-3.525
X5.095Y-5.325
X5.095Y-5.425
X5.195Y-3.425
X5.195Y-3.525
X5.195Y-5.325
X5.195Y-5.425
X5.295Y-3.425
X5.295Y-3.525
X5.295Y-5.325
X5.295Y-5.425
X5.395Y-3.425
X5.395Y-3.525
X5.395Y-5.325
X5.395Y-5.425
X5.495Y-3.425
X5.495Y-3.525
X5.495Y-5.325
X5.495Y-5.425
X5.595Y-3.425
X5.595Y-3.525
X5.595Y-5.325
X5.595Y-5.425
X5.695Y-3.425
X5.695Y-3.525
X5.695Y-5.325
X5.695Y-5.425
X5.795Y-3.425
X5.795Y-3.525
X5.795Y-5.325
X5.795Y-5.425
X5.895Y-3.425
X5.895Y-3.525
X5.895Y-5.325
X5.895Y-5.425
X5.995Y-3.425
X5.995Y-3.525
X5.995Y-5.325
X5.995Y-5.425
X6.095Y-3.425
X6.095Y-3.525
X6.095Y-5.325
X6.095Y-5.425
X6.195Y-3.425
X6.195Y-3.525
X6.195Y-5.325
X6.195Y-5.425
X6.295Y-3.425
X6.295Y-3.525
X6.295Y-5.325
X6.295Y-5.425
X6.395Y-3.425
X6.395Y-3.525
X6.395Y-5.325
X6.395Y-5.425
X6.495Y-3.425
X6.495Y-3.525
X6.495Y-5.325
X6.495Y-5.425
X6.5875Y-4.5725
X6.5875Y-4.6725
X6.5875Y-4.7725
X6.595Y-3.425
X6.595Y-3.525
X6.595Y-5.325
X6.595Y-5.425
X6.695Y-3.425
X6.695Y-3.525
X6.695Y-5.325
X6.695Y-5.425
X6.7275Y-4.5725
X6.7275Y-4.6725
X6.7275Y-4.7725
T9
X5.7Y-5.15
X5.8Y-5.15
X5.9Y-5.15
T10
X4.875Y-4.2302
X4.875Y-4.3501
X6.745Y-4.95
T11
X6.9657Y-3.5
X6.9657Y-3.7
X6.9657Y-3.975
X6.9657Y-4.175
X6.9657Y-4.6
X6.9657Y-4.8
X6.9657Y-5.15
X6.9657Y-5.35
T12
X5.44Y-4.4193
X5.44Y-4.7146
X5.4407Y-3.875
X5.4407Y-4.1703
X6.0306Y-4.4193
X6.0306Y-4.7146
X6.0313Y-3.875
X6.0313Y-4.1703
X6.2274Y-4.4193
X6.2274Y-4.7146
X6.2281Y-3.875
X6.2281Y-4.1703
X6.4243Y-4.4193
X6.4243Y-4.7146
X6.425Y-3.875
X6.425Y-4.1703
T0
M30
