G04 #@! TF.FileFunction,Legend,Top*
%FSLAX46Y46*%
G04 Gerber Fmt 4.6, Leading zero omitted, Abs format (unit mm)*
G04 Created by KiCad (PCBNEW 4.0.1-3.201512221401+6198~38~ubuntu15.10.1-stable) date Mon 11 Jan 2016 07:04:30 PM EST*
%MOMM*%
G01*
G04 APERTURE LIST*
%ADD10C,0.150000*%
%ADD11C,0.203200*%
%ADD12C,0.200660*%
G04 APERTURE END LIST*
D10*
X97203405Y-137231476D02*
X97108167Y-137183857D01*
X96917691Y-137183857D01*
X96822453Y-137231476D01*
X96727215Y-137326714D01*
X96679596Y-137421952D01*
X96679596Y-137612429D01*
X96727215Y-137707667D01*
X96822453Y-137802905D01*
X96917691Y-137850524D01*
X97108167Y-137850524D01*
X97203405Y-137802905D01*
X97012929Y-136850524D02*
X96774834Y-136898143D01*
X96536738Y-137041000D01*
X96393881Y-137279095D01*
X96346262Y-137517190D01*
X96393881Y-137755286D01*
X96536738Y-137993381D01*
X96774834Y-138136238D01*
X97012929Y-138183857D01*
X97251024Y-138136238D01*
X97489119Y-137993381D01*
X97631976Y-137755286D01*
X97679596Y-137517190D01*
X97631976Y-137279095D01*
X97489119Y-137041000D01*
X97251024Y-136898143D01*
X97012929Y-136850524D01*
X99441501Y-137993381D02*
X99108167Y-137517190D01*
X98870072Y-137993381D02*
X98870072Y-136993381D01*
X99251025Y-136993381D01*
X99346263Y-137041000D01*
X99393882Y-137088619D01*
X99441501Y-137183857D01*
X99441501Y-137326714D01*
X99393882Y-137421952D01*
X99346263Y-137469571D01*
X99251025Y-137517190D01*
X98870072Y-137517190D01*
X99870072Y-137898143D02*
X99917691Y-137945762D01*
X99870072Y-137993381D01*
X99822453Y-137945762D01*
X99870072Y-137898143D01*
X99870072Y-137993381D01*
X100917691Y-137898143D02*
X100870072Y-137945762D01*
X100727215Y-137993381D01*
X100631977Y-137993381D01*
X100489119Y-137945762D01*
X100393881Y-137850524D01*
X100346262Y-137755286D01*
X100298643Y-137564810D01*
X100298643Y-137421952D01*
X100346262Y-137231476D01*
X100393881Y-137136238D01*
X100489119Y-137041000D01*
X100631977Y-136993381D01*
X100727215Y-136993381D01*
X100870072Y-137041000D01*
X100917691Y-137088619D01*
X101346262Y-137898143D02*
X101393881Y-137945762D01*
X101346262Y-137993381D01*
X101298643Y-137945762D01*
X101346262Y-137898143D01*
X101346262Y-137993381D01*
X102536738Y-137945762D02*
X102679595Y-137993381D01*
X102917691Y-137993381D01*
X103012929Y-137945762D01*
X103060548Y-137898143D01*
X103108167Y-137802905D01*
X103108167Y-137707667D01*
X103060548Y-137612429D01*
X103012929Y-137564810D01*
X102917691Y-137517190D01*
X102727214Y-137469571D01*
X102631976Y-137421952D01*
X102584357Y-137374333D01*
X102536738Y-137279095D01*
X102536738Y-137183857D01*
X102584357Y-137088619D01*
X102631976Y-137041000D01*
X102727214Y-136993381D01*
X102965310Y-136993381D01*
X103108167Y-137041000D01*
X103536738Y-137898143D02*
X103584357Y-137945762D01*
X103536738Y-137993381D01*
X103489119Y-137945762D01*
X103536738Y-137898143D01*
X103536738Y-137993381D01*
X103917690Y-136993381D02*
X104155785Y-137993381D01*
X104346262Y-137279095D01*
X104536738Y-137993381D01*
X104774833Y-136993381D01*
X105155785Y-137898143D02*
X105203404Y-137945762D01*
X105155785Y-137993381D01*
X105108166Y-137945762D01*
X105155785Y-137898143D01*
X105155785Y-137993381D01*
X107108166Y-137088619D02*
X107155785Y-137041000D01*
X107251023Y-136993381D01*
X107489119Y-136993381D01*
X107584357Y-137041000D01*
X107631976Y-137088619D01*
X107679595Y-137183857D01*
X107679595Y-137279095D01*
X107631976Y-137421952D01*
X107060547Y-137993381D01*
X107679595Y-137993381D01*
X108298642Y-136993381D02*
X108393881Y-136993381D01*
X108489119Y-137041000D01*
X108536738Y-137088619D01*
X108584357Y-137183857D01*
X108631976Y-137374333D01*
X108631976Y-137612429D01*
X108584357Y-137802905D01*
X108536738Y-137898143D01*
X108489119Y-137945762D01*
X108393881Y-137993381D01*
X108298642Y-137993381D01*
X108203404Y-137945762D01*
X108155785Y-137898143D01*
X108108166Y-137802905D01*
X108060547Y-137612429D01*
X108060547Y-137374333D01*
X108108166Y-137183857D01*
X108155785Y-137088619D01*
X108203404Y-137041000D01*
X108298642Y-136993381D01*
X109584357Y-137993381D02*
X109012928Y-137993381D01*
X109298642Y-137993381D02*
X109298642Y-136993381D01*
X109203404Y-137136238D01*
X109108166Y-137231476D01*
X109012928Y-137279095D01*
X110441500Y-136993381D02*
X110251023Y-136993381D01*
X110155785Y-137041000D01*
X110108166Y-137088619D01*
X110012928Y-137231476D01*
X109965309Y-137421952D01*
X109965309Y-137802905D01*
X110012928Y-137898143D01*
X110060547Y-137945762D01*
X110155785Y-137993381D01*
X110346262Y-137993381D01*
X110441500Y-137945762D01*
X110489119Y-137898143D01*
X110536738Y-137802905D01*
X110536738Y-137564810D01*
X110489119Y-137469571D01*
X110441500Y-137421952D01*
X110346262Y-137374333D01*
X110155785Y-137374333D01*
X110060547Y-137421952D01*
X110012928Y-137469571D01*
X109965309Y-137564810D01*
X110767524Y-98353619D02*
X110767524Y-99353619D01*
X110386571Y-99353619D01*
X110291333Y-99306000D01*
X110243714Y-99258381D01*
X110196095Y-99163143D01*
X110196095Y-99020286D01*
X110243714Y-98925048D01*
X110291333Y-98877429D01*
X110386571Y-98829810D01*
X110767524Y-98829810D01*
X109577048Y-99353619D02*
X109386571Y-99353619D01*
X109291333Y-99306000D01*
X109196095Y-99210762D01*
X109148476Y-99020286D01*
X109148476Y-98686952D01*
X109196095Y-98496476D01*
X109291333Y-98401238D01*
X109386571Y-98353619D01*
X109577048Y-98353619D01*
X109672286Y-98401238D01*
X109767524Y-98496476D01*
X109815143Y-98686952D01*
X109815143Y-99020286D01*
X109767524Y-99210762D01*
X109672286Y-99306000D01*
X109577048Y-99353619D01*
X108815143Y-99353619D02*
X108577048Y-98353619D01*
X108386571Y-99067905D01*
X108196095Y-98353619D01*
X107958000Y-99353619D01*
X107577048Y-98877429D02*
X107243714Y-98877429D01*
X107100857Y-98353619D02*
X107577048Y-98353619D01*
X107577048Y-99353619D01*
X107100857Y-99353619D01*
X106100857Y-98353619D02*
X106434191Y-98829810D01*
X106672286Y-98353619D02*
X106672286Y-99353619D01*
X106291333Y-99353619D01*
X106196095Y-99306000D01*
X106148476Y-99258381D01*
X106100857Y-99163143D01*
X106100857Y-99020286D01*
X106148476Y-98925048D01*
X106196095Y-98877429D01*
X106291333Y-98829810D01*
X106672286Y-98829810D01*
X105767476Y-88463381D02*
X105767476Y-87463381D01*
X106148429Y-87463381D01*
X106243667Y-87511000D01*
X106291286Y-87558619D01*
X106338905Y-87653857D01*
X106338905Y-87796714D01*
X106291286Y-87891952D01*
X106243667Y-87939571D01*
X106148429Y-87987190D01*
X105767476Y-87987190D01*
X106957952Y-87463381D02*
X107148429Y-87463381D01*
X107243667Y-87511000D01*
X107338905Y-87606238D01*
X107386524Y-87796714D01*
X107386524Y-88130048D01*
X107338905Y-88320524D01*
X107243667Y-88415762D01*
X107148429Y-88463381D01*
X106957952Y-88463381D01*
X106862714Y-88415762D01*
X106767476Y-88320524D01*
X106719857Y-88130048D01*
X106719857Y-87796714D01*
X106767476Y-87606238D01*
X106862714Y-87511000D01*
X106957952Y-87463381D01*
X107719857Y-87463381D02*
X107957952Y-88463381D01*
X108148429Y-87749095D01*
X108338905Y-88463381D01*
X108577000Y-87463381D01*
X108957952Y-87939571D02*
X109291286Y-87939571D01*
X109434143Y-88463381D02*
X108957952Y-88463381D01*
X108957952Y-87463381D01*
X109434143Y-87463381D01*
X110434143Y-88463381D02*
X110100809Y-87987190D01*
X109862714Y-88463381D02*
X109862714Y-87463381D01*
X110243667Y-87463381D01*
X110338905Y-87511000D01*
X110386524Y-87558619D01*
X110434143Y-87653857D01*
X110434143Y-87796714D01*
X110386524Y-87891952D01*
X110338905Y-87939571D01*
X110243667Y-87987190D01*
X109862714Y-87987190D01*
X101147381Y-98353619D02*
X101480715Y-98829810D01*
X101718810Y-98353619D02*
X101718810Y-99353619D01*
X101337857Y-99353619D01*
X101242619Y-99306000D01*
X101195000Y-99258381D01*
X101147381Y-99163143D01*
X101147381Y-99020286D01*
X101195000Y-98925048D01*
X101242619Y-98877429D01*
X101337857Y-98829810D01*
X101718810Y-98829810D01*
X100718810Y-98877429D02*
X100385476Y-98877429D01*
X100242619Y-98353619D02*
X100718810Y-98353619D01*
X100718810Y-99353619D01*
X100242619Y-99353619D01*
X99861667Y-98401238D02*
X99718810Y-98353619D01*
X99480714Y-98353619D01*
X99385476Y-98401238D01*
X99337857Y-98448857D01*
X99290238Y-98544095D01*
X99290238Y-98639333D01*
X99337857Y-98734571D01*
X99385476Y-98782190D01*
X99480714Y-98829810D01*
X99671191Y-98877429D01*
X99766429Y-98925048D01*
X99814048Y-98972667D01*
X99861667Y-99067905D01*
X99861667Y-99163143D01*
X99814048Y-99258381D01*
X99766429Y-99306000D01*
X99671191Y-99353619D01*
X99433095Y-99353619D01*
X99290238Y-99306000D01*
X98861667Y-98877429D02*
X98528333Y-98877429D01*
X98385476Y-98353619D02*
X98861667Y-98353619D01*
X98861667Y-99353619D01*
X98385476Y-99353619D01*
X98099762Y-99353619D02*
X97528333Y-99353619D01*
X97814048Y-98353619D02*
X97814048Y-99353619D01*
X98115619Y-88463381D02*
X97782285Y-87987190D01*
X97544190Y-88463381D02*
X97544190Y-87463381D01*
X97925143Y-87463381D01*
X98020381Y-87511000D01*
X98068000Y-87558619D01*
X98115619Y-87653857D01*
X98115619Y-87796714D01*
X98068000Y-87891952D01*
X98020381Y-87939571D01*
X97925143Y-87987190D01*
X97544190Y-87987190D01*
X98544190Y-87939571D02*
X98877524Y-87939571D01*
X99020381Y-88463381D02*
X98544190Y-88463381D01*
X98544190Y-87463381D01*
X99020381Y-87463381D01*
X99401333Y-88415762D02*
X99544190Y-88463381D01*
X99782286Y-88463381D01*
X99877524Y-88415762D01*
X99925143Y-88368143D01*
X99972762Y-88272905D01*
X99972762Y-88177667D01*
X99925143Y-88082429D01*
X99877524Y-88034810D01*
X99782286Y-87987190D01*
X99591809Y-87939571D01*
X99496571Y-87891952D01*
X99448952Y-87844333D01*
X99401333Y-87749095D01*
X99401333Y-87653857D01*
X99448952Y-87558619D01*
X99496571Y-87511000D01*
X99591809Y-87463381D01*
X99829905Y-87463381D01*
X99972762Y-87511000D01*
X100401333Y-87939571D02*
X100734667Y-87939571D01*
X100877524Y-88463381D02*
X100401333Y-88463381D01*
X100401333Y-87463381D01*
X100877524Y-87463381D01*
X101163238Y-87463381D02*
X101734667Y-87463381D01*
X101448952Y-88463381D02*
X101448952Y-87463381D01*
X167663976Y-114244381D02*
X167663976Y-113244381D01*
X168235405Y-114244381D01*
X168235405Y-113244381D01*
X169425881Y-113196762D02*
X168568738Y-114482476D01*
X170330643Y-114149143D02*
X170283024Y-114196762D01*
X170140167Y-114244381D01*
X170044929Y-114244381D01*
X169902071Y-114196762D01*
X169806833Y-114101524D01*
X169759214Y-114006286D01*
X169711595Y-113815810D01*
X169711595Y-113672952D01*
X169759214Y-113482476D01*
X169806833Y-113387238D01*
X169902071Y-113292000D01*
X170044929Y-113244381D01*
X170140167Y-113244381D01*
X170283024Y-113292000D01*
X170330643Y-113339619D01*
X118046572Y-131832333D02*
X118427524Y-131832333D01*
X117970381Y-132060905D02*
X118237048Y-131260905D01*
X118503715Y-132060905D01*
X118922762Y-131260905D02*
X118998953Y-131260905D01*
X119075143Y-131299000D01*
X119113238Y-131337095D01*
X119151334Y-131413286D01*
X119189429Y-131565667D01*
X119189429Y-131756143D01*
X119151334Y-131908524D01*
X119113238Y-131984714D01*
X119075143Y-132022810D01*
X118998953Y-132060905D01*
X118922762Y-132060905D01*
X118846572Y-132022810D01*
X118808476Y-131984714D01*
X118770381Y-131908524D01*
X118732286Y-131756143D01*
X118732286Y-131565667D01*
X118770381Y-131413286D01*
X118808476Y-131337095D01*
X118846572Y-131299000D01*
X118922762Y-131260905D01*
X118110072Y-129101833D02*
X118491024Y-129101833D01*
X118033881Y-129330405D02*
X118300548Y-128530405D01*
X118567215Y-129330405D01*
X119252929Y-129330405D02*
X118795786Y-129330405D01*
X119024357Y-129330405D02*
X119024357Y-128530405D01*
X118948167Y-128644690D01*
X118871976Y-128720881D01*
X118795786Y-128758976D01*
X120523119Y-110051810D02*
X120637405Y-110089905D01*
X120827881Y-110089905D01*
X120904071Y-110051810D01*
X120942167Y-110013714D01*
X120980262Y-109937524D01*
X120980262Y-109861333D01*
X120942167Y-109785143D01*
X120904071Y-109747048D01*
X120827881Y-109708952D01*
X120675500Y-109670857D01*
X120599309Y-109632762D01*
X120561214Y-109594667D01*
X120523119Y-109518476D01*
X120523119Y-109442286D01*
X120561214Y-109366095D01*
X120599309Y-109328000D01*
X120675500Y-109289905D01*
X120865976Y-109289905D01*
X120980262Y-109328000D01*
X121780262Y-110013714D02*
X121742167Y-110051810D01*
X121627881Y-110089905D01*
X121551691Y-110089905D01*
X121437405Y-110051810D01*
X121361214Y-109975619D01*
X121323119Y-109899429D01*
X121285024Y-109747048D01*
X121285024Y-109632762D01*
X121323119Y-109480381D01*
X121361214Y-109404190D01*
X121437405Y-109328000D01*
X121551691Y-109289905D01*
X121627881Y-109289905D01*
X121742167Y-109328000D01*
X121780262Y-109366095D01*
X122504072Y-110089905D02*
X122123119Y-110089905D01*
X122123119Y-109289905D01*
X120567572Y-107321310D02*
X120681858Y-107359405D01*
X120872334Y-107359405D01*
X120948524Y-107321310D01*
X120986620Y-107283214D01*
X121024715Y-107207024D01*
X121024715Y-107130833D01*
X120986620Y-107054643D01*
X120948524Y-107016548D01*
X120872334Y-106978452D01*
X120719953Y-106940357D01*
X120643762Y-106902262D01*
X120605667Y-106864167D01*
X120567572Y-106787976D01*
X120567572Y-106711786D01*
X120605667Y-106635595D01*
X120643762Y-106597500D01*
X120719953Y-106559405D01*
X120910429Y-106559405D01*
X121024715Y-106597500D01*
X121367572Y-107359405D02*
X121367572Y-106559405D01*
X121558048Y-106559405D01*
X121672334Y-106597500D01*
X121748525Y-106673690D01*
X121786620Y-106749881D01*
X121824715Y-106902262D01*
X121824715Y-107016548D01*
X121786620Y-107168929D01*
X121748525Y-107245119D01*
X121672334Y-107321310D01*
X121558048Y-107359405D01*
X121367572Y-107359405D01*
X122129477Y-107130833D02*
X122510429Y-107130833D01*
X122053286Y-107359405D02*
X122319953Y-106559405D01*
X122586620Y-107359405D01*
X120612048Y-104273405D02*
X121107286Y-104273405D01*
X120840619Y-104578167D01*
X120954905Y-104578167D01*
X121031095Y-104616262D01*
X121069191Y-104654357D01*
X121107286Y-104730548D01*
X121107286Y-104921024D01*
X121069191Y-104997214D01*
X121031095Y-105035310D01*
X120954905Y-105073405D01*
X120726333Y-105073405D01*
X120650143Y-105035310D01*
X120612048Y-104997214D01*
X121450143Y-104997214D02*
X121488238Y-105035310D01*
X121450143Y-105073405D01*
X121412048Y-105035310D01*
X121450143Y-104997214D01*
X121450143Y-105073405D01*
X121754905Y-104273405D02*
X122250143Y-104273405D01*
X121983476Y-104578167D01*
X122097762Y-104578167D01*
X122173952Y-104616262D01*
X122212048Y-104654357D01*
X122250143Y-104730548D01*
X122250143Y-104921024D01*
X122212048Y-104997214D01*
X122173952Y-105035310D01*
X122097762Y-105073405D01*
X121869190Y-105073405D01*
X121793000Y-105035310D01*
X121754905Y-104997214D01*
X122478714Y-104273405D02*
X122745381Y-105073405D01*
X123012048Y-104273405D01*
X120554881Y-112820405D02*
X120554881Y-112020405D01*
X121012024Y-112820405D01*
X121012024Y-112020405D01*
X121964405Y-111982310D02*
X121278690Y-113010881D01*
X122688214Y-112744214D02*
X122650119Y-112782310D01*
X122535833Y-112820405D01*
X122459643Y-112820405D01*
X122345357Y-112782310D01*
X122269166Y-112706119D01*
X122231071Y-112629929D01*
X122192976Y-112477548D01*
X122192976Y-112363262D01*
X122231071Y-112210881D01*
X122269166Y-112134690D01*
X122345357Y-112058500D01*
X122459643Y-112020405D01*
X122535833Y-112020405D01*
X122650119Y-112058500D01*
X122688214Y-112096595D01*
X120992977Y-114154000D02*
X120916786Y-114115905D01*
X120802501Y-114115905D01*
X120688215Y-114154000D01*
X120612024Y-114230190D01*
X120573929Y-114306381D01*
X120535834Y-114458762D01*
X120535834Y-114573048D01*
X120573929Y-114725429D01*
X120612024Y-114801619D01*
X120688215Y-114877810D01*
X120802501Y-114915905D01*
X120878691Y-114915905D01*
X120992977Y-114877810D01*
X121031072Y-114839714D01*
X121031072Y-114573048D01*
X120878691Y-114573048D01*
X121373929Y-114915905D02*
X121373929Y-114115905D01*
X121831072Y-114915905D01*
X121831072Y-114115905D01*
X122212024Y-114915905D02*
X122212024Y-114115905D01*
X122402500Y-114115905D01*
X122516786Y-114154000D01*
X122592977Y-114230190D01*
X122631072Y-114306381D01*
X122669167Y-114458762D01*
X122669167Y-114573048D01*
X122631072Y-114725429D01*
X122592977Y-114801619D01*
X122516786Y-114877810D01*
X122402500Y-114915905D01*
X122212024Y-114915905D01*
X153711000Y-129445000D02*
X158709000Y-129445000D01*
X153719000Y-129305000D02*
X158701000Y-129305000D01*
X153735000Y-129165000D02*
X156115000Y-129165000D01*
X156305000Y-129165000D02*
X158685000Y-129165000D01*
X153759000Y-129025000D02*
X155720000Y-129025000D01*
X156700000Y-129025000D02*
X158661000Y-129025000D01*
X153792000Y-128885000D02*
X155553000Y-128885000D01*
X156867000Y-128885000D02*
X158628000Y-128885000D01*
X153833000Y-128745000D02*
X155446000Y-128745000D01*
X156974000Y-128745000D02*
X158587000Y-128745000D01*
X153883000Y-128605000D02*
X155375000Y-128605000D01*
X157045000Y-128605000D02*
X158537000Y-128605000D01*
X153944000Y-128465000D02*
X155331000Y-128465000D01*
X157089000Y-128465000D02*
X158476000Y-128465000D01*
X154014000Y-128325000D02*
X155312000Y-128325000D01*
X157108000Y-128325000D02*
X158406000Y-128325000D01*
X154096000Y-128185000D02*
X155314000Y-128185000D01*
X157106000Y-128185000D02*
X158324000Y-128185000D01*
X154191000Y-128045000D02*
X155339000Y-128045000D01*
X157081000Y-128045000D02*
X158229000Y-128045000D01*
X154302000Y-127905000D02*
X155387000Y-127905000D01*
X157033000Y-127905000D02*
X158118000Y-127905000D01*
X154430000Y-127765000D02*
X155465000Y-127765000D01*
X156955000Y-127765000D02*
X157990000Y-127765000D01*
X154579000Y-127625000D02*
X155582000Y-127625000D01*
X156838000Y-127625000D02*
X157841000Y-127625000D01*
X154758000Y-127485000D02*
X155770000Y-127485000D01*
X156650000Y-127485000D02*
X157662000Y-127485000D01*
X154977000Y-127345000D02*
X157443000Y-127345000D01*
X155266000Y-127205000D02*
X157154000Y-127205000D01*
X155738000Y-127065000D02*
X156682000Y-127065000D01*
X157110000Y-128270000D02*
G75*
G03X157110000Y-128270000I-900000J0D01*
G01*
X158747500Y-129520000D02*
G75*
G03X158747500Y-129520000I-2537500J0D01*
G01*
X135931000Y-129445000D02*
X140929000Y-129445000D01*
X135939000Y-129305000D02*
X140921000Y-129305000D01*
X135955000Y-129165000D02*
X138335000Y-129165000D01*
X138525000Y-129165000D02*
X140905000Y-129165000D01*
X135979000Y-129025000D02*
X137940000Y-129025000D01*
X138920000Y-129025000D02*
X140881000Y-129025000D01*
X136012000Y-128885000D02*
X137773000Y-128885000D01*
X139087000Y-128885000D02*
X140848000Y-128885000D01*
X136053000Y-128745000D02*
X137666000Y-128745000D01*
X139194000Y-128745000D02*
X140807000Y-128745000D01*
X136103000Y-128605000D02*
X137595000Y-128605000D01*
X139265000Y-128605000D02*
X140757000Y-128605000D01*
X136164000Y-128465000D02*
X137551000Y-128465000D01*
X139309000Y-128465000D02*
X140696000Y-128465000D01*
X136234000Y-128325000D02*
X137532000Y-128325000D01*
X139328000Y-128325000D02*
X140626000Y-128325000D01*
X136316000Y-128185000D02*
X137534000Y-128185000D01*
X139326000Y-128185000D02*
X140544000Y-128185000D01*
X136411000Y-128045000D02*
X137559000Y-128045000D01*
X139301000Y-128045000D02*
X140449000Y-128045000D01*
X136522000Y-127905000D02*
X137607000Y-127905000D01*
X139253000Y-127905000D02*
X140338000Y-127905000D01*
X136650000Y-127765000D02*
X137685000Y-127765000D01*
X139175000Y-127765000D02*
X140210000Y-127765000D01*
X136799000Y-127625000D02*
X137802000Y-127625000D01*
X139058000Y-127625000D02*
X140061000Y-127625000D01*
X136978000Y-127485000D02*
X137990000Y-127485000D01*
X138870000Y-127485000D02*
X139882000Y-127485000D01*
X137197000Y-127345000D02*
X139663000Y-127345000D01*
X137486000Y-127205000D02*
X139374000Y-127205000D01*
X137958000Y-127065000D02*
X138902000Y-127065000D01*
X139330000Y-128270000D02*
G75*
G03X139330000Y-128270000I-900000J0D01*
G01*
X140967500Y-129520000D02*
G75*
G03X140967500Y-129520000I-2537500J0D01*
G01*
X154896000Y-122991000D02*
X155096000Y-122991000D01*
X157490000Y-122991000D02*
X157310000Y-122991000D01*
X157179643Y-126218744D02*
G75*
G03X157496000Y-122991000I-1003643J1727744D01*
G01*
X157309068Y-125543006D02*
G75*
G03X157310000Y-123440000I-1133068J1052006D01*
G01*
X154869274Y-123003780D02*
G75*
G03X155216000Y-126241000I1306726J-1497220D01*
G01*
X155096747Y-123477111D02*
G75*
G03X155116000Y-125525000I1079253J-1013889D01*
G01*
X137116000Y-122991000D02*
X137316000Y-122991000D01*
X139710000Y-122991000D02*
X139530000Y-122991000D01*
X139399643Y-126218744D02*
G75*
G03X139716000Y-122991000I-1003643J1727744D01*
G01*
X139529068Y-125543006D02*
G75*
G03X139530000Y-123440000I-1133068J1052006D01*
G01*
X137089274Y-123003780D02*
G75*
G03X137436000Y-126241000I1306726J-1497220D01*
G01*
X137316747Y-123477111D02*
G75*
G03X137336000Y-125525000I1079253J-1013889D01*
G01*
X167786500Y-92257000D02*
X167986500Y-92257000D01*
X170380500Y-92257000D02*
X170200500Y-92257000D01*
X170070143Y-95484744D02*
G75*
G03X170386500Y-92257000I-1003643J1727744D01*
G01*
X170199568Y-94809006D02*
G75*
G03X170200500Y-92706000I-1133068J1052006D01*
G01*
X167759774Y-92269780D02*
G75*
G03X168106500Y-95507000I1306726J-1497220D01*
G01*
X167987247Y-92743111D02*
G75*
G03X168006500Y-94791000I1079253J-1013889D01*
G01*
X167786500Y-98226000D02*
X167986500Y-98226000D01*
X170380500Y-98226000D02*
X170200500Y-98226000D01*
X170070143Y-101453744D02*
G75*
G03X170386500Y-98226000I-1003643J1727744D01*
G01*
X170199568Y-100778006D02*
G75*
G03X170200500Y-98675000I-1133068J1052006D01*
G01*
X167759774Y-98238780D02*
G75*
G03X168106500Y-101476000I1306726J-1497220D01*
G01*
X167987247Y-98712111D02*
G75*
G03X168006500Y-100760000I1079253J-1013889D01*
G01*
X126365000Y-107447080D02*
X125349000Y-107447080D01*
X131191000Y-107447080D02*
X132461000Y-107447080D01*
X130937000Y-108717080D02*
X130937000Y-106177080D01*
X130683000Y-108717080D02*
X130683000Y-106177080D01*
X130429000Y-108717080D02*
X130429000Y-106177080D01*
X131191000Y-108717080D02*
X131191000Y-106177080D01*
X130175000Y-108717080D02*
X131445000Y-106177080D01*
X131445000Y-108717080D02*
X130175000Y-106177080D01*
X130175000Y-108717080D02*
X130175000Y-106177080D01*
X130810000Y-108717080D02*
X130810000Y-106177080D01*
X131445000Y-106177080D02*
X131445000Y-108717080D01*
X131445000Y-108717080D02*
X126365000Y-108717080D01*
X126365000Y-108717080D02*
X126365000Y-106177080D01*
X126365000Y-106177080D02*
X131445000Y-106177080D01*
X126365000Y-110492540D02*
X125349000Y-110492540D01*
X131191000Y-110492540D02*
X132461000Y-110492540D01*
X130937000Y-111762540D02*
X130937000Y-109222540D01*
X130683000Y-111762540D02*
X130683000Y-109222540D01*
X130429000Y-111762540D02*
X130429000Y-109222540D01*
X131191000Y-111762540D02*
X131191000Y-109222540D01*
X130175000Y-111762540D02*
X131445000Y-109222540D01*
X131445000Y-111762540D02*
X130175000Y-109222540D01*
X130175000Y-111762540D02*
X130175000Y-109222540D01*
X130810000Y-111762540D02*
X130810000Y-109222540D01*
X131445000Y-109222540D02*
X131445000Y-111762540D01*
X131445000Y-111762540D02*
X126365000Y-111762540D01*
X126365000Y-111762540D02*
X126365000Y-109222540D01*
X126365000Y-109222540D02*
X131445000Y-109222540D01*
X168783000Y-125730000D02*
X169799000Y-125730000D01*
X163957000Y-125730000D02*
X162687000Y-125730000D01*
X164211000Y-124460000D02*
X164211000Y-127000000D01*
X164465000Y-124460000D02*
X164465000Y-127000000D01*
X164719000Y-124460000D02*
X164719000Y-127000000D01*
X163957000Y-124460000D02*
X163957000Y-127000000D01*
X164973000Y-124460000D02*
X163703000Y-127000000D01*
X163703000Y-124460000D02*
X164973000Y-127000000D01*
X164973000Y-124460000D02*
X164973000Y-127000000D01*
X164338000Y-124460000D02*
X164338000Y-127000000D01*
X163703000Y-127000000D02*
X163703000Y-124460000D01*
X163703000Y-124460000D02*
X168783000Y-124460000D01*
X168783000Y-124460000D02*
X168783000Y-127000000D01*
X168783000Y-127000000D02*
X163703000Y-127000000D01*
X120295000Y-114681000D02*
X120295000Y-116231000D01*
X120295000Y-116231000D02*
X117195000Y-116231000D01*
X117195000Y-116231000D02*
X117195000Y-114681000D01*
X117475000Y-113411000D02*
X117475000Y-103251000D01*
X117475000Y-103251000D02*
X120015000Y-103251000D01*
X120015000Y-103251000D02*
X120015000Y-113411000D01*
X117475000Y-113411000D02*
X120015000Y-113411000D01*
X172148500Y-119951500D02*
X172148500Y-114871500D01*
X172148500Y-114871500D02*
X169608500Y-114871500D01*
X169608500Y-114871500D02*
X169608500Y-119951500D01*
X169328500Y-122771500D02*
X169328500Y-121221500D01*
X169608500Y-119951500D02*
X172148500Y-119951500D01*
X172428500Y-121221500D02*
X172428500Y-122771500D01*
X172428500Y-122771500D02*
X169328500Y-122771500D01*
X168592500Y-119951500D02*
X168592500Y-114871500D01*
X168592500Y-114871500D02*
X166052500Y-114871500D01*
X166052500Y-114871500D02*
X166052500Y-119951500D01*
X165772500Y-122771500D02*
X165772500Y-121221500D01*
X166052500Y-119951500D02*
X168592500Y-119951500D01*
X168872500Y-121221500D02*
X168872500Y-122771500D01*
X168872500Y-122771500D02*
X165772500Y-122771500D01*
X164768000Y-91073500D02*
X161368000Y-91073500D01*
X164765056Y-91076444D02*
G75*
G02X163068000Y-95173500I-1697056J-1697056D01*
G01*
X161370944Y-91076444D02*
G75*
G03X163068000Y-95173500I1697056J-1697056D01*
G01*
X158799000Y-91073500D02*
X155399000Y-91073500D01*
X158796056Y-91076444D02*
G75*
G02X157099000Y-95173500I-1697056J-1697056D01*
G01*
X155401944Y-91076444D02*
G75*
G03X157099000Y-95173500I1697056J-1697056D01*
G01*
X127620500Y-91327500D02*
X124220500Y-91327500D01*
X127617556Y-91330444D02*
G75*
G02X125920500Y-95427500I-1697056J-1697056D01*
G01*
X124223444Y-91330444D02*
G75*
G03X125920500Y-95427500I1697056J-1697056D01*
G01*
X132002000Y-122760000D02*
X128602000Y-122760000D01*
X131999056Y-122762944D02*
G75*
G02X130302000Y-126860000I-1697056J-1697056D01*
G01*
X128604944Y-122762944D02*
G75*
G03X130302000Y-126860000I1697056J-1697056D01*
G01*
X133977000Y-105546000D02*
X133977000Y-104276000D01*
X126627000Y-105546000D02*
X126627000Y-104276000D01*
X126627000Y-95876000D02*
X126627000Y-97146000D01*
X133977000Y-95876000D02*
X133977000Y-97146000D01*
X133977000Y-105546000D02*
X126627000Y-105546000D01*
X133977000Y-95876000D02*
X126627000Y-95876000D01*
X133977000Y-104276000D02*
X134912000Y-104276000D01*
X133850000Y-122437000D02*
X133850000Y-121167000D01*
X126500000Y-122437000D02*
X126500000Y-121167000D01*
X126500000Y-112767000D02*
X126500000Y-114037000D01*
X133850000Y-112767000D02*
X133850000Y-114037000D01*
X133850000Y-122437000D02*
X126500000Y-122437000D01*
X133850000Y-112767000D02*
X126500000Y-112767000D01*
X133850000Y-121167000D02*
X134785000Y-121167000D01*
X99305000Y-133977000D02*
X100575000Y-133977000D01*
X99305000Y-126627000D02*
X100575000Y-126627000D01*
X111515000Y-126627000D02*
X110245000Y-126627000D01*
X111515000Y-133977000D02*
X110245000Y-133977000D01*
X99305000Y-133977000D02*
X99305000Y-126627000D01*
X111515000Y-133977000D02*
X111515000Y-126627000D01*
X100575000Y-133977000D02*
X100575000Y-134912000D01*
X106426000Y-121158000D02*
X106426000Y-123698000D01*
X107845903Y-121158000D02*
G75*
G03X107845903Y-121158000I-1419903J0D01*
G01*
X103378000Y-121158000D02*
X103378000Y-123698000D01*
X104797903Y-121158000D02*
G75*
G03X104797903Y-121158000I-1419903J0D01*
G01*
X100330000Y-121158000D02*
X100330000Y-123698000D01*
X101749903Y-121158000D02*
G75*
G03X101749903Y-121158000I-1419903J0D01*
G01*
X109474000Y-121158000D02*
X109474000Y-123698000D01*
X110893903Y-121158000D02*
G75*
G03X110893903Y-121158000I-1419903J0D01*
G01*
X112522000Y-121158000D02*
X112522000Y-123698000D01*
X113941903Y-121158000D02*
G75*
G03X113941903Y-121158000I-1419903J0D01*
G01*
X166878000Y-130810000D02*
X166878000Y-128270000D01*
X168297903Y-130810000D02*
G75*
G03X168297903Y-130810000I-1419903J0D01*
G01*
X133096000Y-130810000D02*
X133096000Y-128270000D01*
X134515903Y-130810000D02*
G75*
G03X134515903Y-130810000I-1419903J0D01*
G01*
X145986500Y-93980000D02*
X145986500Y-91440000D01*
X147406403Y-93980000D02*
G75*
G03X147406403Y-93980000I-1419903J0D01*
G01*
X149098000Y-93980000D02*
X149098000Y-91440000D01*
X150517903Y-93980000D02*
G75*
G03X150517903Y-93980000I-1419903J0D01*
G01*
X169100500Y-111252000D02*
X169100500Y-108712000D01*
X170520403Y-111252000D02*
G75*
G03X170520403Y-111252000I-1419903J0D01*
G01*
X152209500Y-93980000D02*
X152209500Y-91440000D01*
X153629403Y-93980000D02*
G75*
G03X153629403Y-93980000I-1419903J0D01*
G01*
X142875000Y-93980000D02*
X142875000Y-91440000D01*
X144294903Y-93980000D02*
G75*
G03X144294903Y-93980000I-1419903J0D01*
G01*
X169100500Y-106172000D02*
X169100500Y-103632000D01*
X170520403Y-106172000D02*
G75*
G03X170520403Y-106172000I-1419903J0D01*
G01*
X127000000Y-130810000D02*
X127000000Y-128270000D01*
X128419903Y-130810000D02*
G75*
G03X128419903Y-130810000I-1419903J0D01*
G01*
X130048000Y-130810000D02*
X130048000Y-128270000D01*
X131467903Y-130810000D02*
G75*
G03X131467903Y-130810000I-1419903J0D01*
G01*
X130619500Y-93980000D02*
X130619500Y-91440000D01*
X132039403Y-93980000D02*
G75*
G03X132039403Y-93980000I-1419903J0D01*
G01*
X136779000Y-93980000D02*
X136779000Y-91440000D01*
X138198903Y-93980000D02*
G75*
G03X138198903Y-93980000I-1419903J0D01*
G01*
X133731000Y-93980000D02*
X133731000Y-91440000D01*
X135150903Y-93980000D02*
G75*
G03X135150903Y-93980000I-1419903J0D01*
G01*
X139827000Y-93980000D02*
X139827000Y-91440000D01*
X141246903Y-93980000D02*
G75*
G03X141246903Y-93980000I-1419903J0D01*
G01*
X160655000Y-130810000D02*
X160655000Y-128270000D01*
X162074903Y-130810000D02*
G75*
G03X162074903Y-130810000I-1419903J0D01*
G01*
X163766500Y-130810000D02*
X163766500Y-128270000D01*
X165186403Y-130810000D02*
G75*
G03X165186403Y-130810000I-1419903J0D01*
G01*
X121793000Y-93980000D02*
X121793000Y-91440000D01*
X123212903Y-93980000D02*
G75*
G03X123212903Y-93980000I-1419903J0D01*
G01*
X172730000Y-138930000D02*
X172730000Y-127770000D01*
X172730000Y-127770000D02*
X180330000Y-127770000D01*
X180330000Y-127770000D02*
X180330000Y-138930000D01*
X180330000Y-138930000D02*
X172730000Y-138930000D01*
X172730000Y-124960000D02*
X172730000Y-113800000D01*
X172730000Y-113800000D02*
X180330000Y-113800000D01*
X180330000Y-113800000D02*
X180330000Y-124960000D01*
X180330000Y-124960000D02*
X172730000Y-124960000D01*
X172730000Y-97020000D02*
X172730000Y-85860000D01*
X172730000Y-85860000D02*
X180330000Y-85860000D01*
X180330000Y-85860000D02*
X180330000Y-97020000D01*
X180330000Y-97020000D02*
X172730000Y-97020000D01*
X172730000Y-109085000D02*
X172730000Y-97925000D01*
X172730000Y-97925000D02*
X180330000Y-97925000D01*
X180330000Y-97925000D02*
X180330000Y-109085000D01*
X180330000Y-109085000D02*
X172730000Y-109085000D01*
X98786000Y-127774000D02*
X98786000Y-131774000D01*
X96286000Y-127774000D02*
X96286000Y-131774000D01*
X153070000Y-132810000D02*
X141570000Y-132810000D01*
X153070000Y-123810000D02*
X141570000Y-123810000D01*
X141570000Y-132810000D02*
X141570000Y-123810000D01*
X153070000Y-123810000D02*
X153070000Y-132810000D01*
X96568000Y-90345000D02*
X102568000Y-90345000D01*
X96568000Y-96345000D02*
X96568000Y-90345000D01*
X102568000Y-96345000D02*
X96568000Y-96345000D01*
X102568000Y-90345000D02*
X102568000Y-96345000D01*
X101318000Y-93345000D02*
G75*
G03X101318000Y-93345000I-1750000J0D01*
G01*
X105458000Y-90345000D02*
X111458000Y-90345000D01*
X105458000Y-96345000D02*
X105458000Y-90345000D01*
X111458000Y-96345000D02*
X105458000Y-96345000D01*
X111458000Y-90345000D02*
X111458000Y-96345000D01*
X110208000Y-93345000D02*
G75*
G03X110208000Y-93345000I-1750000J0D01*
G01*
X164945000Y-95675000D02*
X164945000Y-108675000D01*
X136195000Y-95675000D02*
X136195000Y-108675000D01*
X136195000Y-95675000D02*
X164945000Y-95675000D01*
X136195000Y-108675000D02*
X164945000Y-108675000D01*
X164926000Y-109500000D02*
X164926000Y-122500000D01*
X136176000Y-109500000D02*
X136176000Y-122500000D01*
X136176000Y-109500000D02*
X164926000Y-109500000D01*
X136176000Y-122500000D02*
X164926000Y-122500000D01*
X124186500Y-102243500D02*
X123986500Y-102243500D01*
X121592500Y-102243500D02*
X121772500Y-102243500D01*
X121902857Y-99015756D02*
G75*
G03X121586500Y-102243500I1003643J-1727744D01*
G01*
X121773432Y-99691494D02*
G75*
G03X121772500Y-101794500I1133068J-1052006D01*
G01*
X124213226Y-102230720D02*
G75*
G03X123866500Y-98993500I-1306726J1497220D01*
G01*
X123985753Y-101757389D02*
G75*
G03X123966500Y-99709500I-1079253J1013889D01*
G01*
X121558500Y-116006000D02*
X121758500Y-116006000D01*
X124152500Y-116006000D02*
X123972500Y-116006000D01*
X123842143Y-119233744D02*
G75*
G03X124158500Y-116006000I-1003643J1727744D01*
G01*
X123971568Y-118558006D02*
G75*
G03X123972500Y-116455000I-1133068J1052006D01*
G01*
X121531774Y-116018780D02*
G75*
G03X121878500Y-119256000I1306726J-1497220D01*
G01*
X121759247Y-116492111D02*
G75*
G03X121778500Y-118540000I1079253J-1013889D01*
G01*
X117374000Y-131572000D02*
X117374000Y-133122000D01*
X115824000Y-133122000D02*
X117374000Y-133122000D01*
X117094000Y-130302000D02*
X114554000Y-130302000D01*
X114554000Y-130302000D02*
X114554000Y-132842000D01*
X114554000Y-132842000D02*
X112014000Y-132842000D01*
X112014000Y-132842000D02*
X112014000Y-127762000D01*
X112014000Y-127762000D02*
X117094000Y-127762000D01*
X117094000Y-127762000D02*
X117094000Y-130302000D01*
X156043334Y-133580143D02*
X155995715Y-133627762D01*
X155852858Y-133675381D01*
X155757620Y-133675381D01*
X155614762Y-133627762D01*
X155519524Y-133532524D01*
X155471905Y-133437286D01*
X155424286Y-133246810D01*
X155424286Y-133103952D01*
X155471905Y-132913476D01*
X155519524Y-132818238D01*
X155614762Y-132723000D01*
X155757620Y-132675381D01*
X155852858Y-132675381D01*
X155995715Y-132723000D01*
X156043334Y-132770619D01*
X156424286Y-132770619D02*
X156471905Y-132723000D01*
X156567143Y-132675381D01*
X156805239Y-132675381D01*
X156900477Y-132723000D01*
X156948096Y-132770619D01*
X156995715Y-132865857D01*
X156995715Y-132961095D01*
X156948096Y-133103952D01*
X156376667Y-133675381D01*
X156995715Y-133675381D01*
X138263334Y-133707143D02*
X138215715Y-133754762D01*
X138072858Y-133802381D01*
X137977620Y-133802381D01*
X137834762Y-133754762D01*
X137739524Y-133659524D01*
X137691905Y-133564286D01*
X137644286Y-133373810D01*
X137644286Y-133230952D01*
X137691905Y-133040476D01*
X137739524Y-132945238D01*
X137834762Y-132850000D01*
X137977620Y-132802381D01*
X138072858Y-132802381D01*
X138215715Y-132850000D01*
X138263334Y-132897619D01*
X138596667Y-132802381D02*
X139215715Y-132802381D01*
X138882381Y-133183333D01*
X139025239Y-133183333D01*
X139120477Y-133230952D01*
X139168096Y-133278571D01*
X139215715Y-133373810D01*
X139215715Y-133611905D01*
X139168096Y-133707143D01*
X139120477Y-133754762D01*
X139025239Y-133802381D01*
X138739524Y-133802381D01*
X138644286Y-133754762D01*
X138596667Y-133707143D01*
X158385095Y-123515429D02*
X159147000Y-123515429D01*
X158766048Y-123896381D02*
X158766048Y-123134476D01*
X160147000Y-123896381D02*
X159575571Y-123896381D01*
X159861285Y-123896381D02*
X159861285Y-122896381D01*
X159766047Y-123039238D01*
X159670809Y-123134476D01*
X159575571Y-123182095D01*
X160527952Y-122991619D02*
X160575571Y-122944000D01*
X160670809Y-122896381D01*
X160908905Y-122896381D01*
X161004143Y-122944000D01*
X161051762Y-122991619D01*
X161099381Y-123086857D01*
X161099381Y-123182095D01*
X161051762Y-123324952D01*
X160480333Y-123896381D01*
X161099381Y-123896381D01*
X161385095Y-122896381D02*
X161718428Y-123896381D01*
X162051762Y-122896381D01*
X133334286Y-123642429D02*
X134096191Y-123642429D01*
X133715239Y-124023381D02*
X133715239Y-123261476D01*
X135048572Y-123023381D02*
X134572381Y-123023381D01*
X134524762Y-123499571D01*
X134572381Y-123451952D01*
X134667619Y-123404333D01*
X134905715Y-123404333D01*
X135000953Y-123451952D01*
X135048572Y-123499571D01*
X135096191Y-123594810D01*
X135096191Y-123832905D01*
X135048572Y-123928143D01*
X135000953Y-123975762D01*
X134905715Y-124023381D01*
X134667619Y-124023381D01*
X134572381Y-123975762D01*
X134524762Y-123928143D01*
X135381905Y-123023381D02*
X135715238Y-124023381D01*
X136048572Y-123023381D01*
X166822381Y-94781595D02*
X165822381Y-94781595D01*
X165822381Y-94543500D01*
X165870000Y-94400642D01*
X165965238Y-94305404D01*
X166060476Y-94257785D01*
X166250952Y-94210166D01*
X166393810Y-94210166D01*
X166584286Y-94257785D01*
X166679524Y-94305404D01*
X166774762Y-94400642D01*
X166822381Y-94543500D01*
X166822381Y-94781595D01*
X165822381Y-93876833D02*
X165822381Y-93257785D01*
X166203333Y-93591119D01*
X166203333Y-93448261D01*
X166250952Y-93353023D01*
X166298571Y-93305404D01*
X166393810Y-93257785D01*
X166631905Y-93257785D01*
X166727143Y-93305404D01*
X166774762Y-93353023D01*
X166822381Y-93448261D01*
X166822381Y-93733976D01*
X166774762Y-93829214D01*
X166727143Y-93876833D01*
X166631881Y-100433095D02*
X165631881Y-100433095D01*
X165631881Y-100195000D01*
X165679500Y-100052142D01*
X165774738Y-99956904D01*
X165869976Y-99909285D01*
X166060452Y-99861666D01*
X166203310Y-99861666D01*
X166393786Y-99909285D01*
X166489024Y-99956904D01*
X166584262Y-100052142D01*
X166631881Y-100195000D01*
X166631881Y-100433095D01*
X165965214Y-99004523D02*
X166631881Y-99004523D01*
X165584262Y-99242619D02*
X166298548Y-99480714D01*
X166298548Y-98861666D01*
X127531905Y-107767381D02*
X127531905Y-106767381D01*
X127770000Y-106767381D01*
X127912858Y-106815000D01*
X128008096Y-106910238D01*
X128055715Y-107005476D01*
X128103334Y-107195952D01*
X128103334Y-107338810D01*
X128055715Y-107529286D01*
X128008096Y-107624524D01*
X127912858Y-107719762D01*
X127770000Y-107767381D01*
X127531905Y-107767381D01*
X128436667Y-106767381D02*
X129103334Y-106767381D01*
X128674762Y-107767381D01*
X127531905Y-110944921D02*
X127531905Y-109944921D01*
X127770000Y-109944921D01*
X127912858Y-109992540D01*
X128008096Y-110087778D01*
X128055715Y-110183016D01*
X128103334Y-110373492D01*
X128103334Y-110516350D01*
X128055715Y-110706826D01*
X128008096Y-110802064D01*
X127912858Y-110897302D01*
X127770000Y-110944921D01*
X127531905Y-110944921D01*
X128674762Y-110373492D02*
X128579524Y-110325873D01*
X128531905Y-110278254D01*
X128484286Y-110183016D01*
X128484286Y-110135397D01*
X128531905Y-110040159D01*
X128579524Y-109992540D01*
X128674762Y-109944921D01*
X128865239Y-109944921D01*
X128960477Y-109992540D01*
X129008096Y-110040159D01*
X129055715Y-110135397D01*
X129055715Y-110183016D01*
X129008096Y-110278254D01*
X128960477Y-110325873D01*
X128865239Y-110373492D01*
X128674762Y-110373492D01*
X128579524Y-110421111D01*
X128531905Y-110468730D01*
X128484286Y-110563969D01*
X128484286Y-110754445D01*
X128531905Y-110849683D01*
X128579524Y-110897302D01*
X128674762Y-110944921D01*
X128865239Y-110944921D01*
X128960477Y-110897302D01*
X129008096Y-110849683D01*
X129055715Y-110754445D01*
X129055715Y-110563969D01*
X129008096Y-110468730D01*
X128960477Y-110421111D01*
X128865239Y-110373492D01*
X165812245Y-128722381D02*
X165812245Y-127722381D01*
X166050340Y-127722381D01*
X166193198Y-127770000D01*
X166288436Y-127865238D01*
X166336055Y-127960476D01*
X166383674Y-128150952D01*
X166383674Y-128293810D01*
X166336055Y-128484286D01*
X166288436Y-128579524D01*
X166193198Y-128674762D01*
X166050340Y-128722381D01*
X165812245Y-128722381D01*
X166859864Y-128722381D02*
X167050340Y-128722381D01*
X167145579Y-128674762D01*
X167193198Y-128627143D01*
X167288436Y-128484286D01*
X167336055Y-128293810D01*
X167336055Y-127912857D01*
X167288436Y-127817619D01*
X167240817Y-127770000D01*
X167145579Y-127722381D01*
X166955102Y-127722381D01*
X166859864Y-127770000D01*
X166812245Y-127817619D01*
X166764626Y-127912857D01*
X166764626Y-128150952D01*
X166812245Y-128246190D01*
X166859864Y-128293810D01*
X166955102Y-128341429D01*
X167145579Y-128341429D01*
X167240817Y-128293810D01*
X167288436Y-128246190D01*
X167336055Y-128150952D01*
X116784381Y-113783571D02*
X116308190Y-114116905D01*
X116784381Y-114355000D02*
X115784381Y-114355000D01*
X115784381Y-113974047D01*
X115832000Y-113878809D01*
X115879619Y-113831190D01*
X115974857Y-113783571D01*
X116117714Y-113783571D01*
X116212952Y-113831190D01*
X116260571Y-113878809D01*
X116308190Y-113974047D01*
X116308190Y-114355000D01*
X115784381Y-113497857D02*
X115784381Y-112926428D01*
X116784381Y-113212143D02*
X115784381Y-113212143D01*
X116689143Y-112021666D02*
X116736762Y-112069285D01*
X116784381Y-112212142D01*
X116784381Y-112307380D01*
X116736762Y-112450238D01*
X116641524Y-112545476D01*
X116546286Y-112593095D01*
X116355810Y-112640714D01*
X116212952Y-112640714D01*
X116022476Y-112593095D01*
X115927238Y-112545476D01*
X115832000Y-112450238D01*
X115784381Y-112307380D01*
X115784381Y-112212142D01*
X115832000Y-112069285D01*
X115879619Y-112021666D01*
X116784381Y-110831190D02*
X115784381Y-110831190D01*
X116498667Y-110497856D01*
X115784381Y-110164523D01*
X116784381Y-110164523D01*
X115784381Y-109497857D02*
X115784381Y-109307380D01*
X115832000Y-109212142D01*
X115927238Y-109116904D01*
X116117714Y-109069285D01*
X116451048Y-109069285D01*
X116641524Y-109116904D01*
X116736762Y-109212142D01*
X116784381Y-109307380D01*
X116784381Y-109497857D01*
X116736762Y-109593095D01*
X116641524Y-109688333D01*
X116451048Y-109735952D01*
X116117714Y-109735952D01*
X115927238Y-109688333D01*
X115832000Y-109593095D01*
X115784381Y-109497857D01*
X116784381Y-108640714D02*
X115784381Y-108640714D01*
X115784381Y-108402619D01*
X115832000Y-108259761D01*
X115927238Y-108164523D01*
X116022476Y-108116904D01*
X116212952Y-108069285D01*
X116355810Y-108069285D01*
X116546286Y-108116904D01*
X116641524Y-108164523D01*
X116736762Y-108259761D01*
X116784381Y-108402619D01*
X116784381Y-108640714D01*
X115784381Y-107640714D02*
X116593905Y-107640714D01*
X116689143Y-107593095D01*
X116736762Y-107545476D01*
X116784381Y-107450238D01*
X116784381Y-107259761D01*
X116736762Y-107164523D01*
X116689143Y-107116904D01*
X116593905Y-107069285D01*
X115784381Y-107069285D01*
X116784381Y-106116904D02*
X116784381Y-106593095D01*
X115784381Y-106593095D01*
X116260571Y-105783571D02*
X116260571Y-105450237D01*
X116784381Y-105307380D02*
X116784381Y-105783571D01*
X115784381Y-105783571D01*
X115784381Y-105307380D01*
X167513167Y-124086881D02*
X167513167Y-123086881D01*
X168084596Y-124086881D01*
X168084596Y-123086881D01*
X169275072Y-123039262D02*
X168417929Y-124324976D01*
X169798881Y-123086881D02*
X169989358Y-123086881D01*
X170084596Y-123134500D01*
X170179834Y-123229738D01*
X170227453Y-123420214D01*
X170227453Y-123753548D01*
X170179834Y-123944024D01*
X170084596Y-124039262D01*
X169989358Y-124086881D01*
X169798881Y-124086881D01*
X169703643Y-124039262D01*
X169608405Y-123944024D01*
X169560786Y-123753548D01*
X169560786Y-123420214D01*
X169608405Y-123229738D01*
X169703643Y-123134500D01*
X169798881Y-123086881D01*
X166401762Y-91987619D02*
X166306524Y-91940000D01*
X166211286Y-91844762D01*
X166068429Y-91701905D01*
X165973190Y-91654286D01*
X165877952Y-91654286D01*
X165925571Y-91892381D02*
X165830333Y-91844762D01*
X165735095Y-91749524D01*
X165687476Y-91559048D01*
X165687476Y-91225714D01*
X165735095Y-91035238D01*
X165830333Y-90940000D01*
X165925571Y-90892381D01*
X166116048Y-90892381D01*
X166211286Y-90940000D01*
X166306524Y-91035238D01*
X166354143Y-91225714D01*
X166354143Y-91559048D01*
X166306524Y-91749524D01*
X166211286Y-91844762D01*
X166116048Y-91892381D01*
X165925571Y-91892381D01*
X167306524Y-91892381D02*
X166735095Y-91892381D01*
X167020809Y-91892381D02*
X167020809Y-90892381D01*
X166925571Y-91035238D01*
X166830333Y-91130476D01*
X166735095Y-91178095D01*
X159988262Y-91733619D02*
X159893024Y-91686000D01*
X159797786Y-91590762D01*
X159654929Y-91447905D01*
X159559690Y-91400286D01*
X159464452Y-91400286D01*
X159512071Y-91638381D02*
X159416833Y-91590762D01*
X159321595Y-91495524D01*
X159273976Y-91305048D01*
X159273976Y-90971714D01*
X159321595Y-90781238D01*
X159416833Y-90686000D01*
X159512071Y-90638381D01*
X159702548Y-90638381D01*
X159797786Y-90686000D01*
X159893024Y-90781238D01*
X159940643Y-90971714D01*
X159940643Y-91305048D01*
X159893024Y-91495524D01*
X159797786Y-91590762D01*
X159702548Y-91638381D01*
X159512071Y-91638381D01*
X160321595Y-90733619D02*
X160369214Y-90686000D01*
X160464452Y-90638381D01*
X160702548Y-90638381D01*
X160797786Y-90686000D01*
X160845405Y-90733619D01*
X160893024Y-90828857D01*
X160893024Y-90924095D01*
X160845405Y-91066952D01*
X160273976Y-91638381D01*
X160893024Y-91638381D01*
X125190262Y-97067619D02*
X125095024Y-97020000D01*
X124999786Y-96924762D01*
X124856929Y-96781905D01*
X124761690Y-96734286D01*
X124666452Y-96734286D01*
X124714071Y-96972381D02*
X124618833Y-96924762D01*
X124523595Y-96829524D01*
X124475976Y-96639048D01*
X124475976Y-96305714D01*
X124523595Y-96115238D01*
X124618833Y-96020000D01*
X124714071Y-95972381D01*
X124904548Y-95972381D01*
X124999786Y-96020000D01*
X125095024Y-96115238D01*
X125142643Y-96305714D01*
X125142643Y-96639048D01*
X125095024Y-96829524D01*
X124999786Y-96924762D01*
X124904548Y-96972381D01*
X124714071Y-96972381D01*
X125475976Y-95972381D02*
X126095024Y-95972381D01*
X125761690Y-96353333D01*
X125904548Y-96353333D01*
X125999786Y-96400952D01*
X126047405Y-96448571D01*
X126095024Y-96543810D01*
X126095024Y-96781905D01*
X126047405Y-96877143D01*
X125999786Y-96924762D01*
X125904548Y-96972381D01*
X125618833Y-96972381D01*
X125523595Y-96924762D01*
X125475976Y-96877143D01*
X126396762Y-125642619D02*
X126301524Y-125595000D01*
X126206286Y-125499762D01*
X126063429Y-125356905D01*
X125968190Y-125309286D01*
X125872952Y-125309286D01*
X125920571Y-125547381D02*
X125825333Y-125499762D01*
X125730095Y-125404524D01*
X125682476Y-125214048D01*
X125682476Y-124880714D01*
X125730095Y-124690238D01*
X125825333Y-124595000D01*
X125920571Y-124547381D01*
X126111048Y-124547381D01*
X126206286Y-124595000D01*
X126301524Y-124690238D01*
X126349143Y-124880714D01*
X126349143Y-125214048D01*
X126301524Y-125404524D01*
X126206286Y-125499762D01*
X126111048Y-125547381D01*
X125920571Y-125547381D01*
X127206286Y-124880714D02*
X127206286Y-125547381D01*
X126968190Y-124499762D02*
X126730095Y-125214048D01*
X127349143Y-125214048D01*
X129881381Y-101726905D02*
X130690905Y-101726905D01*
X130786143Y-101679286D01*
X130833762Y-101631667D01*
X130881381Y-101536429D01*
X130881381Y-101345952D01*
X130833762Y-101250714D01*
X130786143Y-101203095D01*
X130690905Y-101155476D01*
X129881381Y-101155476D01*
X129881381Y-100774524D02*
X129881381Y-100155476D01*
X130262333Y-100488810D01*
X130262333Y-100345952D01*
X130309952Y-100250714D01*
X130357571Y-100203095D01*
X130452810Y-100155476D01*
X130690905Y-100155476D01*
X130786143Y-100203095D01*
X130833762Y-100250714D01*
X130881381Y-100345952D01*
X130881381Y-100631667D01*
X130833762Y-100726905D01*
X130786143Y-100774524D01*
X129627381Y-118871905D02*
X130436905Y-118871905D01*
X130532143Y-118824286D01*
X130579762Y-118776667D01*
X130627381Y-118681429D01*
X130627381Y-118490952D01*
X130579762Y-118395714D01*
X130532143Y-118348095D01*
X130436905Y-118300476D01*
X129627381Y-118300476D01*
X129960714Y-117395714D02*
X130627381Y-117395714D01*
X129579762Y-117633810D02*
X130294048Y-117871905D01*
X130294048Y-117252857D01*
X102719524Y-129722619D02*
X102767143Y-129675000D01*
X102862381Y-129627381D01*
X103100477Y-129627381D01*
X103195715Y-129675000D01*
X103243334Y-129722619D01*
X103290953Y-129817857D01*
X103290953Y-129913095D01*
X103243334Y-130055952D01*
X102671905Y-130627381D01*
X103290953Y-130627381D01*
X104148096Y-129960714D02*
X104148096Y-130627381D01*
X103910000Y-129579762D02*
X103671905Y-130294048D01*
X104290953Y-130294048D01*
X105243334Y-130532143D02*
X105195715Y-130579762D01*
X105052858Y-130627381D01*
X104957620Y-130627381D01*
X104814762Y-130579762D01*
X104719524Y-130484524D01*
X104671905Y-130389286D01*
X104624286Y-130198810D01*
X104624286Y-130055952D01*
X104671905Y-129865476D01*
X104719524Y-129770238D01*
X104814762Y-129675000D01*
X104957620Y-129627381D01*
X105052858Y-129627381D01*
X105195715Y-129675000D01*
X105243334Y-129722619D01*
X105624286Y-129722619D02*
X105671905Y-129675000D01*
X105767143Y-129627381D01*
X106005239Y-129627381D01*
X106100477Y-129675000D01*
X106148096Y-129722619D01*
X106195715Y-129817857D01*
X106195715Y-129913095D01*
X106148096Y-130055952D01*
X105576667Y-130627381D01*
X106195715Y-130627381D01*
X107100477Y-129627381D02*
X106624286Y-129627381D01*
X106576667Y-130103571D01*
X106624286Y-130055952D01*
X106719524Y-130008333D01*
X106957620Y-130008333D01*
X107052858Y-130055952D01*
X107100477Y-130103571D01*
X107148096Y-130198810D01*
X107148096Y-130436905D01*
X107100477Y-130532143D01*
X107052858Y-130579762D01*
X106957620Y-130627381D01*
X106719524Y-130627381D01*
X106624286Y-130579762D01*
X106576667Y-130532143D01*
X108005239Y-129627381D02*
X107814762Y-129627381D01*
X107719524Y-129675000D01*
X107671905Y-129722619D01*
X107576667Y-129865476D01*
X107529048Y-130055952D01*
X107529048Y-130436905D01*
X107576667Y-130532143D01*
X107624286Y-130579762D01*
X107719524Y-130627381D01*
X107910001Y-130627381D01*
X108005239Y-130579762D01*
X108052858Y-130532143D01*
X108100477Y-130436905D01*
X108100477Y-130198810D01*
X108052858Y-130103571D01*
X108005239Y-130055952D01*
X107910001Y-130008333D01*
X107719524Y-130008333D01*
X107624286Y-130055952D01*
X107576667Y-130103571D01*
X107529048Y-130198810D01*
X106322834Y-125610881D02*
X105989500Y-125134690D01*
X105751405Y-125610881D02*
X105751405Y-124610881D01*
X106132358Y-124610881D01*
X106227596Y-124658500D01*
X106275215Y-124706119D01*
X106322834Y-124801357D01*
X106322834Y-124944214D01*
X106275215Y-125039452D01*
X106227596Y-125087071D01*
X106132358Y-125134690D01*
X105751405Y-125134690D01*
X107275215Y-125610881D02*
X106703786Y-125610881D01*
X106989500Y-125610881D02*
X106989500Y-124610881D01*
X106894262Y-124753738D01*
X106799024Y-124848976D01*
X106703786Y-124896595D01*
X103211334Y-125610881D02*
X102878000Y-125134690D01*
X102639905Y-125610881D02*
X102639905Y-124610881D01*
X103020858Y-124610881D01*
X103116096Y-124658500D01*
X103163715Y-124706119D01*
X103211334Y-124801357D01*
X103211334Y-124944214D01*
X103163715Y-125039452D01*
X103116096Y-125087071D01*
X103020858Y-125134690D01*
X102639905Y-125134690D01*
X103592286Y-124706119D02*
X103639905Y-124658500D01*
X103735143Y-124610881D01*
X103973239Y-124610881D01*
X104068477Y-124658500D01*
X104116096Y-124706119D01*
X104163715Y-124801357D01*
X104163715Y-124896595D01*
X104116096Y-125039452D01*
X103544667Y-125610881D01*
X104163715Y-125610881D01*
X100163334Y-125674381D02*
X99830000Y-125198190D01*
X99591905Y-125674381D02*
X99591905Y-124674381D01*
X99972858Y-124674381D01*
X100068096Y-124722000D01*
X100115715Y-124769619D01*
X100163334Y-124864857D01*
X100163334Y-125007714D01*
X100115715Y-125102952D01*
X100068096Y-125150571D01*
X99972858Y-125198190D01*
X99591905Y-125198190D01*
X100496667Y-124674381D02*
X101115715Y-124674381D01*
X100782381Y-125055333D01*
X100925239Y-125055333D01*
X101020477Y-125102952D01*
X101068096Y-125150571D01*
X101115715Y-125245810D01*
X101115715Y-125483905D01*
X101068096Y-125579143D01*
X101020477Y-125626762D01*
X100925239Y-125674381D01*
X100639524Y-125674381D01*
X100544286Y-125626762D01*
X100496667Y-125579143D01*
X109434334Y-125547381D02*
X109101000Y-125071190D01*
X108862905Y-125547381D02*
X108862905Y-124547381D01*
X109243858Y-124547381D01*
X109339096Y-124595000D01*
X109386715Y-124642619D01*
X109434334Y-124737857D01*
X109434334Y-124880714D01*
X109386715Y-124975952D01*
X109339096Y-125023571D01*
X109243858Y-125071190D01*
X108862905Y-125071190D01*
X110291477Y-124880714D02*
X110291477Y-125547381D01*
X110053381Y-124499762D02*
X109815286Y-125214048D01*
X110434334Y-125214048D01*
X112545834Y-125547381D02*
X112212500Y-125071190D01*
X111974405Y-125547381D02*
X111974405Y-124547381D01*
X112355358Y-124547381D01*
X112450596Y-124595000D01*
X112498215Y-124642619D01*
X112545834Y-124737857D01*
X112545834Y-124880714D01*
X112498215Y-124975952D01*
X112450596Y-125023571D01*
X112355358Y-125071190D01*
X111974405Y-125071190D01*
X113450596Y-124547381D02*
X112974405Y-124547381D01*
X112926786Y-125023571D01*
X112974405Y-124975952D01*
X113069643Y-124928333D01*
X113307739Y-124928333D01*
X113402977Y-124975952D01*
X113450596Y-125023571D01*
X113498215Y-125118810D01*
X113498215Y-125356905D01*
X113450596Y-125452143D01*
X113402977Y-125499762D01*
X113307739Y-125547381D01*
X113069643Y-125547381D01*
X112974405Y-125499762D01*
X112926786Y-125452143D01*
X166711334Y-133802381D02*
X166378000Y-133326190D01*
X166139905Y-133802381D02*
X166139905Y-132802381D01*
X166520858Y-132802381D01*
X166616096Y-132850000D01*
X166663715Y-132897619D01*
X166711334Y-132992857D01*
X166711334Y-133135714D01*
X166663715Y-133230952D01*
X166616096Y-133278571D01*
X166520858Y-133326190D01*
X166139905Y-133326190D01*
X167568477Y-132802381D02*
X167378000Y-132802381D01*
X167282762Y-132850000D01*
X167235143Y-132897619D01*
X167139905Y-133040476D01*
X167092286Y-133230952D01*
X167092286Y-133611905D01*
X167139905Y-133707143D01*
X167187524Y-133754762D01*
X167282762Y-133802381D01*
X167473239Y-133802381D01*
X167568477Y-133754762D01*
X167616096Y-133707143D01*
X167663715Y-133611905D01*
X167663715Y-133373810D01*
X167616096Y-133278571D01*
X167568477Y-133230952D01*
X167473239Y-133183333D01*
X167282762Y-133183333D01*
X167187524Y-133230952D01*
X167139905Y-133278571D01*
X167092286Y-133373810D01*
X133183334Y-133802381D02*
X132850000Y-133326190D01*
X132611905Y-133802381D02*
X132611905Y-132802381D01*
X132992858Y-132802381D01*
X133088096Y-132850000D01*
X133135715Y-132897619D01*
X133183334Y-132992857D01*
X133183334Y-133135714D01*
X133135715Y-133230952D01*
X133088096Y-133278571D01*
X132992858Y-133326190D01*
X132611905Y-133326190D01*
X133516667Y-132802381D02*
X134183334Y-132802381D01*
X133754762Y-133802381D01*
X145819834Y-96972381D02*
X145486500Y-96496190D01*
X145248405Y-96972381D02*
X145248405Y-95972381D01*
X145629358Y-95972381D01*
X145724596Y-96020000D01*
X145772215Y-96067619D01*
X145819834Y-96162857D01*
X145819834Y-96305714D01*
X145772215Y-96400952D01*
X145724596Y-96448571D01*
X145629358Y-96496190D01*
X145248405Y-96496190D01*
X146391262Y-96400952D02*
X146296024Y-96353333D01*
X146248405Y-96305714D01*
X146200786Y-96210476D01*
X146200786Y-96162857D01*
X146248405Y-96067619D01*
X146296024Y-96020000D01*
X146391262Y-95972381D01*
X146581739Y-95972381D01*
X146676977Y-96020000D01*
X146724596Y-96067619D01*
X146772215Y-96162857D01*
X146772215Y-96210476D01*
X146724596Y-96305714D01*
X146676977Y-96353333D01*
X146581739Y-96400952D01*
X146391262Y-96400952D01*
X146296024Y-96448571D01*
X146248405Y-96496190D01*
X146200786Y-96591429D01*
X146200786Y-96781905D01*
X146248405Y-96877143D01*
X146296024Y-96924762D01*
X146391262Y-96972381D01*
X146581739Y-96972381D01*
X146676977Y-96924762D01*
X146724596Y-96877143D01*
X146772215Y-96781905D01*
X146772215Y-96591429D01*
X146724596Y-96496190D01*
X146676977Y-96448571D01*
X146581739Y-96400952D01*
X148931334Y-96972381D02*
X148598000Y-96496190D01*
X148359905Y-96972381D02*
X148359905Y-95972381D01*
X148740858Y-95972381D01*
X148836096Y-96020000D01*
X148883715Y-96067619D01*
X148931334Y-96162857D01*
X148931334Y-96305714D01*
X148883715Y-96400952D01*
X148836096Y-96448571D01*
X148740858Y-96496190D01*
X148359905Y-96496190D01*
X149407524Y-96972381D02*
X149598000Y-96972381D01*
X149693239Y-96924762D01*
X149740858Y-96877143D01*
X149836096Y-96734286D01*
X149883715Y-96543810D01*
X149883715Y-96162857D01*
X149836096Y-96067619D01*
X149788477Y-96020000D01*
X149693239Y-95972381D01*
X149502762Y-95972381D01*
X149407524Y-96020000D01*
X149359905Y-96067619D01*
X149312286Y-96162857D01*
X149312286Y-96400952D01*
X149359905Y-96496190D01*
X149407524Y-96543810D01*
X149502762Y-96591429D01*
X149693239Y-96591429D01*
X149788477Y-96543810D01*
X149836096Y-96496190D01*
X149883715Y-96400952D01*
X166949381Y-111640857D02*
X166473190Y-111974191D01*
X166949381Y-112212286D02*
X165949381Y-112212286D01*
X165949381Y-111831333D01*
X165997000Y-111736095D01*
X166044619Y-111688476D01*
X166139857Y-111640857D01*
X166282714Y-111640857D01*
X166377952Y-111688476D01*
X166425571Y-111736095D01*
X166473190Y-111831333D01*
X166473190Y-112212286D01*
X166949381Y-110688476D02*
X166949381Y-111259905D01*
X166949381Y-110974191D02*
X165949381Y-110974191D01*
X166092238Y-111069429D01*
X166187476Y-111164667D01*
X166235095Y-111259905D01*
X165949381Y-110069429D02*
X165949381Y-109974190D01*
X165997000Y-109878952D01*
X166044619Y-109831333D01*
X166139857Y-109783714D01*
X166330333Y-109736095D01*
X166568429Y-109736095D01*
X166758905Y-109783714D01*
X166854143Y-109831333D01*
X166901762Y-109878952D01*
X166949381Y-109974190D01*
X166949381Y-110069429D01*
X166901762Y-110164667D01*
X166854143Y-110212286D01*
X166758905Y-110259905D01*
X166568429Y-110307524D01*
X166330333Y-110307524D01*
X166139857Y-110259905D01*
X166044619Y-110212286D01*
X165997000Y-110164667D01*
X165949381Y-110069429D01*
X151566643Y-96972381D02*
X151233309Y-96496190D01*
X150995214Y-96972381D02*
X150995214Y-95972381D01*
X151376167Y-95972381D01*
X151471405Y-96020000D01*
X151519024Y-96067619D01*
X151566643Y-96162857D01*
X151566643Y-96305714D01*
X151519024Y-96400952D01*
X151471405Y-96448571D01*
X151376167Y-96496190D01*
X150995214Y-96496190D01*
X152519024Y-96972381D02*
X151947595Y-96972381D01*
X152233309Y-96972381D02*
X152233309Y-95972381D01*
X152138071Y-96115238D01*
X152042833Y-96210476D01*
X151947595Y-96258095D01*
X153471405Y-96972381D02*
X152899976Y-96972381D01*
X153185690Y-96972381D02*
X153185690Y-95972381D01*
X153090452Y-96115238D01*
X152995214Y-96210476D01*
X152899976Y-96258095D01*
X142232143Y-96972381D02*
X141898809Y-96496190D01*
X141660714Y-96972381D02*
X141660714Y-95972381D01*
X142041667Y-95972381D01*
X142136905Y-96020000D01*
X142184524Y-96067619D01*
X142232143Y-96162857D01*
X142232143Y-96305714D01*
X142184524Y-96400952D01*
X142136905Y-96448571D01*
X142041667Y-96496190D01*
X141660714Y-96496190D01*
X143184524Y-96972381D02*
X142613095Y-96972381D01*
X142898809Y-96972381D02*
X142898809Y-95972381D01*
X142803571Y-96115238D01*
X142708333Y-96210476D01*
X142613095Y-96258095D01*
X143565476Y-96067619D02*
X143613095Y-96020000D01*
X143708333Y-95972381D01*
X143946429Y-95972381D01*
X144041667Y-96020000D01*
X144089286Y-96067619D01*
X144136905Y-96162857D01*
X144136905Y-96258095D01*
X144089286Y-96400952D01*
X143517857Y-96972381D01*
X144136905Y-96972381D01*
X166949381Y-106624357D02*
X166473190Y-106957691D01*
X166949381Y-107195786D02*
X165949381Y-107195786D01*
X165949381Y-106814833D01*
X165997000Y-106719595D01*
X166044619Y-106671976D01*
X166139857Y-106624357D01*
X166282714Y-106624357D01*
X166377952Y-106671976D01*
X166425571Y-106719595D01*
X166473190Y-106814833D01*
X166473190Y-107195786D01*
X166949381Y-105671976D02*
X166949381Y-106243405D01*
X166949381Y-105957691D02*
X165949381Y-105957691D01*
X166092238Y-106052929D01*
X166187476Y-106148167D01*
X166235095Y-106243405D01*
X165949381Y-105338643D02*
X165949381Y-104719595D01*
X166330333Y-105052929D01*
X166330333Y-104910071D01*
X166377952Y-104814833D01*
X166425571Y-104767214D01*
X166520810Y-104719595D01*
X166758905Y-104719595D01*
X166854143Y-104767214D01*
X166901762Y-104814833D01*
X166949381Y-104910071D01*
X166949381Y-105195786D01*
X166901762Y-105291024D01*
X166854143Y-105338643D01*
X126484143Y-133802381D02*
X126150809Y-133326190D01*
X125912714Y-133802381D02*
X125912714Y-132802381D01*
X126293667Y-132802381D01*
X126388905Y-132850000D01*
X126436524Y-132897619D01*
X126484143Y-132992857D01*
X126484143Y-133135714D01*
X126436524Y-133230952D01*
X126388905Y-133278571D01*
X126293667Y-133326190D01*
X125912714Y-133326190D01*
X127436524Y-133802381D02*
X126865095Y-133802381D01*
X127150809Y-133802381D02*
X127150809Y-132802381D01*
X127055571Y-132945238D01*
X126960333Y-133040476D01*
X126865095Y-133088095D01*
X128293667Y-133135714D02*
X128293667Y-133802381D01*
X128055571Y-132754762D02*
X127817476Y-133469048D01*
X128436524Y-133469048D01*
X129405143Y-133802381D02*
X129071809Y-133326190D01*
X128833714Y-133802381D02*
X128833714Y-132802381D01*
X129214667Y-132802381D01*
X129309905Y-132850000D01*
X129357524Y-132897619D01*
X129405143Y-132992857D01*
X129405143Y-133135714D01*
X129357524Y-133230952D01*
X129309905Y-133278571D01*
X129214667Y-133326190D01*
X128833714Y-133326190D01*
X130357524Y-133802381D02*
X129786095Y-133802381D01*
X130071809Y-133802381D02*
X130071809Y-132802381D01*
X129976571Y-132945238D01*
X129881333Y-133040476D01*
X129786095Y-133088095D01*
X131262286Y-132802381D02*
X130786095Y-132802381D01*
X130738476Y-133278571D01*
X130786095Y-133230952D01*
X130881333Y-133183333D01*
X131119429Y-133183333D01*
X131214667Y-133230952D01*
X131262286Y-133278571D01*
X131309905Y-133373810D01*
X131309905Y-133611905D01*
X131262286Y-133707143D01*
X131214667Y-133754762D01*
X131119429Y-133802381D01*
X130881333Y-133802381D01*
X130786095Y-133754762D01*
X130738476Y-133707143D01*
X129976643Y-96845381D02*
X129643309Y-96369190D01*
X129405214Y-96845381D02*
X129405214Y-95845381D01*
X129786167Y-95845381D01*
X129881405Y-95893000D01*
X129929024Y-95940619D01*
X129976643Y-96035857D01*
X129976643Y-96178714D01*
X129929024Y-96273952D01*
X129881405Y-96321571D01*
X129786167Y-96369190D01*
X129405214Y-96369190D01*
X130929024Y-96845381D02*
X130357595Y-96845381D01*
X130643309Y-96845381D02*
X130643309Y-95845381D01*
X130548071Y-95988238D01*
X130452833Y-96083476D01*
X130357595Y-96131095D01*
X131786167Y-95845381D02*
X131595690Y-95845381D01*
X131500452Y-95893000D01*
X131452833Y-95940619D01*
X131357595Y-96083476D01*
X131309976Y-96273952D01*
X131309976Y-96654905D01*
X131357595Y-96750143D01*
X131405214Y-96797762D01*
X131500452Y-96845381D01*
X131690929Y-96845381D01*
X131786167Y-96797762D01*
X131833786Y-96750143D01*
X131881405Y-96654905D01*
X131881405Y-96416810D01*
X131833786Y-96321571D01*
X131786167Y-96273952D01*
X131690929Y-96226333D01*
X131500452Y-96226333D01*
X131405214Y-96273952D01*
X131357595Y-96321571D01*
X131309976Y-96416810D01*
X136263143Y-96845381D02*
X135929809Y-96369190D01*
X135691714Y-96845381D02*
X135691714Y-95845381D01*
X136072667Y-95845381D01*
X136167905Y-95893000D01*
X136215524Y-95940619D01*
X136263143Y-96035857D01*
X136263143Y-96178714D01*
X136215524Y-96273952D01*
X136167905Y-96321571D01*
X136072667Y-96369190D01*
X135691714Y-96369190D01*
X137215524Y-96845381D02*
X136644095Y-96845381D01*
X136929809Y-96845381D02*
X136929809Y-95845381D01*
X136834571Y-95988238D01*
X136739333Y-96083476D01*
X136644095Y-96131095D01*
X137548857Y-95845381D02*
X138215524Y-95845381D01*
X137786952Y-96845381D01*
X133088143Y-96972381D02*
X132754809Y-96496190D01*
X132516714Y-96972381D02*
X132516714Y-95972381D01*
X132897667Y-95972381D01*
X132992905Y-96020000D01*
X133040524Y-96067619D01*
X133088143Y-96162857D01*
X133088143Y-96305714D01*
X133040524Y-96400952D01*
X132992905Y-96448571D01*
X132897667Y-96496190D01*
X132516714Y-96496190D01*
X134040524Y-96972381D02*
X133469095Y-96972381D01*
X133754809Y-96972381D02*
X133754809Y-95972381D01*
X133659571Y-96115238D01*
X133564333Y-96210476D01*
X133469095Y-96258095D01*
X134611952Y-96400952D02*
X134516714Y-96353333D01*
X134469095Y-96305714D01*
X134421476Y-96210476D01*
X134421476Y-96162857D01*
X134469095Y-96067619D01*
X134516714Y-96020000D01*
X134611952Y-95972381D01*
X134802429Y-95972381D01*
X134897667Y-96020000D01*
X134945286Y-96067619D01*
X134992905Y-96162857D01*
X134992905Y-96210476D01*
X134945286Y-96305714D01*
X134897667Y-96353333D01*
X134802429Y-96400952D01*
X134611952Y-96400952D01*
X134516714Y-96448571D01*
X134469095Y-96496190D01*
X134421476Y-96591429D01*
X134421476Y-96781905D01*
X134469095Y-96877143D01*
X134516714Y-96924762D01*
X134611952Y-96972381D01*
X134802429Y-96972381D01*
X134897667Y-96924762D01*
X134945286Y-96877143D01*
X134992905Y-96781905D01*
X134992905Y-96591429D01*
X134945286Y-96496190D01*
X134897667Y-96448571D01*
X134802429Y-96400952D01*
X139311143Y-96972381D02*
X138977809Y-96496190D01*
X138739714Y-96972381D02*
X138739714Y-95972381D01*
X139120667Y-95972381D01*
X139215905Y-96020000D01*
X139263524Y-96067619D01*
X139311143Y-96162857D01*
X139311143Y-96305714D01*
X139263524Y-96400952D01*
X139215905Y-96448571D01*
X139120667Y-96496190D01*
X138739714Y-96496190D01*
X140263524Y-96972381D02*
X139692095Y-96972381D01*
X139977809Y-96972381D02*
X139977809Y-95972381D01*
X139882571Y-96115238D01*
X139787333Y-96210476D01*
X139692095Y-96258095D01*
X140739714Y-96972381D02*
X140930190Y-96972381D01*
X141025429Y-96924762D01*
X141073048Y-96877143D01*
X141168286Y-96734286D01*
X141215905Y-96543810D01*
X141215905Y-96162857D01*
X141168286Y-96067619D01*
X141120667Y-96020000D01*
X141025429Y-95972381D01*
X140834952Y-95972381D01*
X140739714Y-96020000D01*
X140692095Y-96067619D01*
X140644476Y-96162857D01*
X140644476Y-96400952D01*
X140692095Y-96496190D01*
X140739714Y-96543810D01*
X140834952Y-96591429D01*
X141025429Y-96591429D01*
X141120667Y-96543810D01*
X141168286Y-96496190D01*
X141215905Y-96400952D01*
X160012143Y-133802381D02*
X159678809Y-133326190D01*
X159440714Y-133802381D02*
X159440714Y-132802381D01*
X159821667Y-132802381D01*
X159916905Y-132850000D01*
X159964524Y-132897619D01*
X160012143Y-132992857D01*
X160012143Y-133135714D01*
X159964524Y-133230952D01*
X159916905Y-133278571D01*
X159821667Y-133326190D01*
X159440714Y-133326190D01*
X160393095Y-132897619D02*
X160440714Y-132850000D01*
X160535952Y-132802381D01*
X160774048Y-132802381D01*
X160869286Y-132850000D01*
X160916905Y-132897619D01*
X160964524Y-132992857D01*
X160964524Y-133088095D01*
X160916905Y-133230952D01*
X160345476Y-133802381D01*
X160964524Y-133802381D01*
X161583571Y-132802381D02*
X161678810Y-132802381D01*
X161774048Y-132850000D01*
X161821667Y-132897619D01*
X161869286Y-132992857D01*
X161916905Y-133183333D01*
X161916905Y-133421429D01*
X161869286Y-133611905D01*
X161821667Y-133707143D01*
X161774048Y-133754762D01*
X161678810Y-133802381D01*
X161583571Y-133802381D01*
X161488333Y-133754762D01*
X161440714Y-133707143D01*
X161393095Y-133611905D01*
X161345476Y-133421429D01*
X161345476Y-133183333D01*
X161393095Y-132992857D01*
X161440714Y-132897619D01*
X161488333Y-132850000D01*
X161583571Y-132802381D01*
X163123643Y-133802381D02*
X162790309Y-133326190D01*
X162552214Y-133802381D02*
X162552214Y-132802381D01*
X162933167Y-132802381D01*
X163028405Y-132850000D01*
X163076024Y-132897619D01*
X163123643Y-132992857D01*
X163123643Y-133135714D01*
X163076024Y-133230952D01*
X163028405Y-133278571D01*
X162933167Y-133326190D01*
X162552214Y-133326190D01*
X163504595Y-132897619D02*
X163552214Y-132850000D01*
X163647452Y-132802381D01*
X163885548Y-132802381D01*
X163980786Y-132850000D01*
X164028405Y-132897619D01*
X164076024Y-132992857D01*
X164076024Y-133088095D01*
X164028405Y-133230952D01*
X163456976Y-133802381D01*
X164076024Y-133802381D01*
X165028405Y-133802381D02*
X164456976Y-133802381D01*
X164742690Y-133802381D02*
X164742690Y-132802381D01*
X164647452Y-132945238D01*
X164552214Y-133040476D01*
X164456976Y-133088095D01*
X121277143Y-96845381D02*
X120943809Y-96369190D01*
X120705714Y-96845381D02*
X120705714Y-95845381D01*
X121086667Y-95845381D01*
X121181905Y-95893000D01*
X121229524Y-95940619D01*
X121277143Y-96035857D01*
X121277143Y-96178714D01*
X121229524Y-96273952D01*
X121181905Y-96321571D01*
X121086667Y-96369190D01*
X120705714Y-96369190D01*
X121658095Y-95940619D02*
X121705714Y-95893000D01*
X121800952Y-95845381D01*
X122039048Y-95845381D01*
X122134286Y-95893000D01*
X122181905Y-95940619D01*
X122229524Y-96035857D01*
X122229524Y-96131095D01*
X122181905Y-96273952D01*
X121610476Y-96845381D01*
X122229524Y-96845381D01*
X122610476Y-95940619D02*
X122658095Y-95893000D01*
X122753333Y-95845381D01*
X122991429Y-95845381D01*
X123086667Y-95893000D01*
X123134286Y-95940619D01*
X123181905Y-96035857D01*
X123181905Y-96131095D01*
X123134286Y-96273952D01*
X122562857Y-96845381D01*
X123181905Y-96845381D01*
X171838929Y-136302357D02*
X171838929Y-135540452D01*
X172219881Y-133778547D02*
X172219881Y-134349976D01*
X172219881Y-134064262D02*
X171219881Y-134064262D01*
X171362738Y-134159500D01*
X171457976Y-134254738D01*
X171505595Y-134349976D01*
X171315119Y-133397595D02*
X171267500Y-133349976D01*
X171219881Y-133254738D01*
X171219881Y-133016642D01*
X171267500Y-132921404D01*
X171315119Y-132873785D01*
X171410357Y-132826166D01*
X171505595Y-132826166D01*
X171648452Y-132873785D01*
X172219881Y-133445214D01*
X172219881Y-132826166D01*
X171219881Y-132540452D02*
X172219881Y-132207119D01*
X171219881Y-131873785D01*
X171838929Y-130778547D02*
X171838929Y-130016642D01*
X172219881Y-130397594D02*
X171457976Y-130397594D01*
X172934762Y-113355381D02*
X172934762Y-112355381D01*
X173172857Y-112355381D01*
X173315715Y-112403000D01*
X173410953Y-112498238D01*
X173458572Y-112593476D01*
X173506191Y-112783952D01*
X173506191Y-112926810D01*
X173458572Y-113117286D01*
X173410953Y-113212524D01*
X173315715Y-113307762D01*
X173172857Y-113355381D01*
X172934762Y-113355381D01*
X174125238Y-112355381D02*
X174315715Y-112355381D01*
X174410953Y-112403000D01*
X174506191Y-112498238D01*
X174553810Y-112688714D01*
X174553810Y-113022048D01*
X174506191Y-113212524D01*
X174410953Y-113307762D01*
X174315715Y-113355381D01*
X174125238Y-113355381D01*
X174030000Y-113307762D01*
X173934762Y-113212524D01*
X173887143Y-113022048D01*
X173887143Y-112688714D01*
X173934762Y-112498238D01*
X174030000Y-112403000D01*
X174125238Y-112355381D01*
X175172857Y-112355381D02*
X175363334Y-112355381D01*
X175458572Y-112403000D01*
X175553810Y-112498238D01*
X175601429Y-112688714D01*
X175601429Y-113022048D01*
X175553810Y-113212524D01*
X175458572Y-113307762D01*
X175363334Y-113355381D01*
X175172857Y-113355381D01*
X175077619Y-113307762D01*
X174982381Y-113212524D01*
X174934762Y-113022048D01*
X174934762Y-112688714D01*
X174982381Y-112498238D01*
X175077619Y-112403000D01*
X175172857Y-112355381D01*
X176601429Y-113355381D02*
X176268095Y-112879190D01*
X176030000Y-113355381D02*
X176030000Y-112355381D01*
X176410953Y-112355381D01*
X176506191Y-112403000D01*
X176553810Y-112450619D01*
X176601429Y-112545857D01*
X176601429Y-112688714D01*
X176553810Y-112783952D01*
X176506191Y-112831571D01*
X176410953Y-112879190D01*
X176030000Y-112879190D01*
X178268096Y-113355381D02*
X177791905Y-113355381D01*
X177791905Y-112355381D01*
X179172858Y-113260143D02*
X179125239Y-113307762D01*
X178982382Y-113355381D01*
X178887144Y-113355381D01*
X178744286Y-113307762D01*
X178649048Y-113212524D01*
X178601429Y-113117286D01*
X178553810Y-112926810D01*
X178553810Y-112783952D01*
X178601429Y-112593476D01*
X178649048Y-112498238D01*
X178744286Y-112403000D01*
X178887144Y-112355381D01*
X178982382Y-112355381D01*
X179125239Y-112403000D01*
X179172858Y-112450619D01*
X179601429Y-113355381D02*
X179601429Y-112355381D01*
X180172858Y-113355381D02*
X179744286Y-112783952D01*
X180172858Y-112355381D02*
X179601429Y-112926810D01*
X172283381Y-91447857D02*
X171807190Y-91781191D01*
X172283381Y-92019286D02*
X171283381Y-92019286D01*
X171283381Y-91638333D01*
X171331000Y-91543095D01*
X171378619Y-91495476D01*
X171473857Y-91447857D01*
X171616714Y-91447857D01*
X171711952Y-91495476D01*
X171759571Y-91543095D01*
X171807190Y-91638333D01*
X171807190Y-92019286D01*
X171759571Y-91019286D02*
X171759571Y-90685952D01*
X172283381Y-90543095D02*
X172283381Y-91019286D01*
X171283381Y-91019286D01*
X171283381Y-90543095D01*
X172283381Y-90114524D02*
X171283381Y-90114524D01*
X171283381Y-89876429D01*
X171331000Y-89733571D01*
X171426238Y-89638333D01*
X171521476Y-89590714D01*
X171711952Y-89543095D01*
X171854810Y-89543095D01*
X172045286Y-89590714D01*
X172140524Y-89638333D01*
X172235762Y-89733571D01*
X172283381Y-89876429D01*
X172283381Y-90114524D01*
X171267500Y-105806666D02*
X171219881Y-105901904D01*
X171219881Y-106044761D01*
X171267500Y-106187619D01*
X171362738Y-106282857D01*
X171457976Y-106330476D01*
X171648452Y-106378095D01*
X171791310Y-106378095D01*
X171981786Y-106330476D01*
X172077024Y-106282857D01*
X172172262Y-106187619D01*
X172219881Y-106044761D01*
X172219881Y-105949523D01*
X172172262Y-105806666D01*
X172124643Y-105759047D01*
X171791310Y-105759047D01*
X171791310Y-105949523D01*
X172219881Y-104759047D02*
X171743690Y-105092381D01*
X172219881Y-105330476D02*
X171219881Y-105330476D01*
X171219881Y-104949523D01*
X171267500Y-104854285D01*
X171315119Y-104806666D01*
X171410357Y-104759047D01*
X171553214Y-104759047D01*
X171648452Y-104806666D01*
X171696071Y-104854285D01*
X171743690Y-104949523D01*
X171743690Y-105330476D01*
X171696071Y-104330476D02*
X171696071Y-103997142D01*
X172219881Y-103854285D02*
X172219881Y-104330476D01*
X171219881Y-104330476D01*
X171219881Y-103854285D01*
X171696071Y-103425714D02*
X171696071Y-103092380D01*
X172219881Y-102949523D02*
X172219881Y-103425714D01*
X171219881Y-103425714D01*
X171219881Y-102949523D01*
X172219881Y-102520952D02*
X171219881Y-102520952D01*
X172219881Y-101949523D01*
X171219881Y-101949523D01*
X97369334Y-133326143D02*
X97321715Y-133373762D01*
X97178858Y-133421381D01*
X97083620Y-133421381D01*
X96940762Y-133373762D01*
X96845524Y-133278524D01*
X96797905Y-133183286D01*
X96750286Y-132992810D01*
X96750286Y-132849952D01*
X96797905Y-132659476D01*
X96845524Y-132564238D01*
X96940762Y-132469000D01*
X97083620Y-132421381D01*
X97178858Y-132421381D01*
X97321715Y-132469000D01*
X97369334Y-132516619D01*
X98321715Y-133421381D02*
X97750286Y-133421381D01*
X98036000Y-133421381D02*
X98036000Y-132421381D01*
X97940762Y-132564238D01*
X97845524Y-132659476D01*
X97750286Y-132707095D01*
D11*
X146291905Y-124641429D02*
X146291905Y-125875143D01*
X146340286Y-126020286D01*
X146388667Y-126092857D01*
X146485429Y-126165429D01*
X146678952Y-126165429D01*
X146775714Y-126092857D01*
X146824095Y-126020286D01*
X146872476Y-125875143D01*
X146872476Y-124641429D01*
X147307905Y-124786571D02*
X147356286Y-124714000D01*
X147453048Y-124641429D01*
X147694952Y-124641429D01*
X147791714Y-124714000D01*
X147840095Y-124786571D01*
X147888476Y-124931714D01*
X147888476Y-125076857D01*
X147840095Y-125294571D01*
X147259524Y-126165429D01*
X147888476Y-126165429D01*
X142481905Y-127181429D02*
X142820572Y-128705429D01*
X143159238Y-127181429D01*
X143401143Y-127181429D02*
X144078476Y-127181429D01*
X143643048Y-128705429D01*
X144610667Y-127834571D02*
X144513905Y-127762000D01*
X144465524Y-127689429D01*
X144417143Y-127544286D01*
X144417143Y-127471714D01*
X144465524Y-127326571D01*
X144513905Y-127254000D01*
X144610667Y-127181429D01*
X144804190Y-127181429D01*
X144900952Y-127254000D01*
X144949333Y-127326571D01*
X144997714Y-127471714D01*
X144997714Y-127544286D01*
X144949333Y-127689429D01*
X144900952Y-127762000D01*
X144804190Y-127834571D01*
X144610667Y-127834571D01*
X144513905Y-127907143D01*
X144465524Y-127979714D01*
X144417143Y-128124857D01*
X144417143Y-128415143D01*
X144465524Y-128560286D01*
X144513905Y-128632857D01*
X144610667Y-128705429D01*
X144804190Y-128705429D01*
X144900952Y-128632857D01*
X144949333Y-128560286D01*
X144997714Y-128415143D01*
X144997714Y-128124857D01*
X144949333Y-127979714D01*
X144900952Y-127907143D01*
X144804190Y-127834571D01*
X145626667Y-127181429D02*
X145723428Y-127181429D01*
X145820190Y-127254000D01*
X145868571Y-127326571D01*
X145916952Y-127471714D01*
X145965333Y-127762000D01*
X145965333Y-128124857D01*
X145916952Y-128415143D01*
X145868571Y-128560286D01*
X145820190Y-128632857D01*
X145723428Y-128705429D01*
X145626667Y-128705429D01*
X145529905Y-128632857D01*
X145481524Y-128560286D01*
X145433143Y-128415143D01*
X145384762Y-128124857D01*
X145384762Y-127762000D01*
X145433143Y-127471714D01*
X145481524Y-127326571D01*
X145529905Y-127254000D01*
X145626667Y-127181429D01*
X146884571Y-127181429D02*
X146400762Y-127181429D01*
X146352381Y-127907143D01*
X146400762Y-127834571D01*
X146497524Y-127762000D01*
X146739428Y-127762000D01*
X146836190Y-127834571D01*
X146884571Y-127907143D01*
X146932952Y-128052286D01*
X146932952Y-128415143D01*
X146884571Y-128560286D01*
X146836190Y-128632857D01*
X146739428Y-128705429D01*
X146497524Y-128705429D01*
X146400762Y-128632857D01*
X146352381Y-128560286D01*
X147368381Y-128124857D02*
X148142476Y-128124857D01*
X148577905Y-127326571D02*
X148626286Y-127254000D01*
X148723048Y-127181429D01*
X148964952Y-127181429D01*
X149061714Y-127254000D01*
X149110095Y-127326571D01*
X149158476Y-127471714D01*
X149158476Y-127616857D01*
X149110095Y-127834571D01*
X148529524Y-128705429D01*
X149158476Y-128705429D01*
X149787429Y-127181429D02*
X149884190Y-127181429D01*
X149980952Y-127254000D01*
X150029333Y-127326571D01*
X150077714Y-127471714D01*
X150126095Y-127762000D01*
X150126095Y-128124857D01*
X150077714Y-128415143D01*
X150029333Y-128560286D01*
X149980952Y-128632857D01*
X149884190Y-128705429D01*
X149787429Y-128705429D01*
X149690667Y-128632857D01*
X149642286Y-128560286D01*
X149593905Y-128415143D01*
X149545524Y-128124857D01*
X149545524Y-127762000D01*
X149593905Y-127471714D01*
X149642286Y-127326571D01*
X149690667Y-127254000D01*
X149787429Y-127181429D01*
X150755048Y-127181429D02*
X150851809Y-127181429D01*
X150948571Y-127254000D01*
X150996952Y-127326571D01*
X151045333Y-127471714D01*
X151093714Y-127762000D01*
X151093714Y-128124857D01*
X151045333Y-128415143D01*
X150996952Y-128560286D01*
X150948571Y-128632857D01*
X150851809Y-128705429D01*
X150755048Y-128705429D01*
X150658286Y-128632857D01*
X150609905Y-128560286D01*
X150561524Y-128415143D01*
X150513143Y-128124857D01*
X150513143Y-127762000D01*
X150561524Y-127471714D01*
X150609905Y-127326571D01*
X150658286Y-127254000D01*
X150755048Y-127181429D01*
X151722667Y-127181429D02*
X151819428Y-127181429D01*
X151916190Y-127254000D01*
X151964571Y-127326571D01*
X152012952Y-127471714D01*
X152061333Y-127762000D01*
X152061333Y-128124857D01*
X152012952Y-128415143D01*
X151964571Y-128560286D01*
X151916190Y-128632857D01*
X151819428Y-128705429D01*
X151722667Y-128705429D01*
X151625905Y-128632857D01*
X151577524Y-128560286D01*
X151529143Y-128415143D01*
X151480762Y-128124857D01*
X151480762Y-127762000D01*
X151529143Y-127471714D01*
X151577524Y-127326571D01*
X151625905Y-127254000D01*
X151722667Y-127181429D01*
D10*
X104020381Y-95047381D02*
X103544190Y-95380715D01*
X104020381Y-95618810D02*
X103020381Y-95618810D01*
X103020381Y-95237857D01*
X103068000Y-95142619D01*
X103115619Y-95095000D01*
X103210857Y-95047381D01*
X103353714Y-95047381D01*
X103448952Y-95095000D01*
X103496571Y-95142619D01*
X103544190Y-95237857D01*
X103544190Y-95618810D01*
X103496571Y-94618810D02*
X103496571Y-94285476D01*
X104020381Y-94142619D02*
X104020381Y-94618810D01*
X103020381Y-94618810D01*
X103020381Y-94142619D01*
X103972762Y-93761667D02*
X104020381Y-93618810D01*
X104020381Y-93380714D01*
X103972762Y-93285476D01*
X103925143Y-93237857D01*
X103829905Y-93190238D01*
X103734667Y-93190238D01*
X103639429Y-93237857D01*
X103591810Y-93285476D01*
X103544190Y-93380714D01*
X103496571Y-93571191D01*
X103448952Y-93666429D01*
X103401333Y-93714048D01*
X103306095Y-93761667D01*
X103210857Y-93761667D01*
X103115619Y-93714048D01*
X103068000Y-93666429D01*
X103020381Y-93571191D01*
X103020381Y-93333095D01*
X103068000Y-93190238D01*
X103496571Y-92761667D02*
X103496571Y-92428333D01*
X104020381Y-92285476D02*
X104020381Y-92761667D01*
X103020381Y-92761667D01*
X103020381Y-92285476D01*
X103020381Y-91999762D02*
X103020381Y-91428333D01*
X104020381Y-91714048D02*
X103020381Y-91714048D01*
X112910381Y-95904524D02*
X111910381Y-95904524D01*
X111910381Y-95523571D01*
X111958000Y-95428333D01*
X112005619Y-95380714D01*
X112100857Y-95333095D01*
X112243714Y-95333095D01*
X112338952Y-95380714D01*
X112386571Y-95428333D01*
X112434190Y-95523571D01*
X112434190Y-95904524D01*
X111910381Y-94714048D02*
X111910381Y-94523571D01*
X111958000Y-94428333D01*
X112053238Y-94333095D01*
X112243714Y-94285476D01*
X112577048Y-94285476D01*
X112767524Y-94333095D01*
X112862762Y-94428333D01*
X112910381Y-94523571D01*
X112910381Y-94714048D01*
X112862762Y-94809286D01*
X112767524Y-94904524D01*
X112577048Y-94952143D01*
X112243714Y-94952143D01*
X112053238Y-94904524D01*
X111958000Y-94809286D01*
X111910381Y-94714048D01*
X111910381Y-93952143D02*
X112910381Y-93714048D01*
X112196095Y-93523571D01*
X112910381Y-93333095D01*
X111910381Y-93095000D01*
X112386571Y-92714048D02*
X112386571Y-92380714D01*
X112910381Y-92237857D02*
X112910381Y-92714048D01*
X111910381Y-92714048D01*
X111910381Y-92237857D01*
X112910381Y-91237857D02*
X112434190Y-91571191D01*
X112910381Y-91809286D02*
X111910381Y-91809286D01*
X111910381Y-91428333D01*
X111958000Y-91333095D01*
X112005619Y-91285476D01*
X112100857Y-91237857D01*
X112243714Y-91237857D01*
X112338952Y-91285476D01*
X112386571Y-91333095D01*
X112434190Y-91428333D01*
X112434190Y-91809286D01*
D12*
X157099000Y-103063524D02*
X156675667Y-102458762D01*
X156373286Y-103063524D02*
X156373286Y-101793524D01*
X156857095Y-101793524D01*
X156978048Y-101854000D01*
X157038524Y-101914476D01*
X157099000Y-102035429D01*
X157099000Y-102216857D01*
X157038524Y-102337810D01*
X156978048Y-102398286D01*
X156857095Y-102458762D01*
X156373286Y-102458762D01*
X158248048Y-103063524D02*
X157643286Y-103063524D01*
X157643286Y-101793524D01*
X158913286Y-102458762D02*
X158913286Y-103063524D01*
X158489952Y-101793524D02*
X158913286Y-102458762D01*
X159336619Y-101793524D01*
X160425190Y-103063524D02*
X159699476Y-103063524D01*
X160062333Y-103063524D02*
X160062333Y-101793524D01*
X159941381Y-101974952D01*
X159820428Y-102095905D01*
X159699476Y-102156381D01*
X139917714Y-101793524D02*
X139917714Y-102700667D01*
X139857238Y-102882095D01*
X139736286Y-103003048D01*
X139554857Y-103063524D01*
X139433905Y-103063524D01*
X140401524Y-101793524D02*
X140703905Y-103063524D01*
X140945809Y-102156381D01*
X141187714Y-103063524D01*
X141490095Y-101793524D01*
X141913429Y-101914476D02*
X141973905Y-101854000D01*
X142094857Y-101793524D01*
X142397238Y-101793524D01*
X142518191Y-101854000D01*
X142578667Y-101914476D01*
X142639143Y-102035429D01*
X142639143Y-102156381D01*
X142578667Y-102337810D01*
X141852953Y-103063524D01*
X142639143Y-103063524D01*
X143122953Y-103003048D02*
X143304381Y-103063524D01*
X143606762Y-103063524D01*
X143727715Y-103003048D01*
X143788191Y-102942571D01*
X143848667Y-102821619D01*
X143848667Y-102700667D01*
X143788191Y-102579714D01*
X143727715Y-102519238D01*
X143606762Y-102458762D01*
X143364858Y-102398286D01*
X143243905Y-102337810D01*
X143183429Y-102277333D01*
X143122953Y-102156381D01*
X143122953Y-102035429D01*
X143183429Y-101914476D01*
X143243905Y-101854000D01*
X143364858Y-101793524D01*
X143667238Y-101793524D01*
X143848667Y-101854000D01*
X144392953Y-103063524D02*
X144392953Y-101793524D01*
X145118667Y-103063524D01*
X145118667Y-101793524D01*
X145723429Y-102579714D02*
X146691048Y-102579714D01*
X147295810Y-103063524D02*
X147295810Y-101793524D01*
X147598191Y-101793524D01*
X147779619Y-101854000D01*
X147900572Y-101974952D01*
X147961048Y-102095905D01*
X148021524Y-102337810D01*
X148021524Y-102519238D01*
X147961048Y-102761143D01*
X147900572Y-102882095D01*
X147779619Y-103003048D01*
X147598191Y-103063524D01*
X147295810Y-103063524D01*
X149291524Y-102942571D02*
X149231048Y-103003048D01*
X149049619Y-103063524D01*
X148928667Y-103063524D01*
X148747239Y-103003048D01*
X148626286Y-102882095D01*
X148565810Y-102761143D01*
X148505334Y-102519238D01*
X148505334Y-102337810D01*
X148565810Y-102095905D01*
X148626286Y-101974952D01*
X148747239Y-101854000D01*
X148928667Y-101793524D01*
X149049619Y-101793524D01*
X149231048Y-101854000D01*
X149291524Y-101914476D01*
X150440572Y-101793524D02*
X149835810Y-101793524D01*
X149775334Y-102398286D01*
X149835810Y-102337810D01*
X149956762Y-102277333D01*
X150259143Y-102277333D01*
X150380096Y-102337810D01*
X150440572Y-102398286D01*
X150501048Y-102519238D01*
X150501048Y-102821619D01*
X150440572Y-102942571D01*
X150380096Y-103003048D01*
X150259143Y-103063524D01*
X149956762Y-103063524D01*
X149835810Y-103003048D01*
X149775334Y-102942571D01*
X150863905Y-101793524D02*
X151287239Y-103063524D01*
X151710572Y-101793524D01*
X157099000Y-116906524D02*
X156675667Y-116301762D01*
X156373286Y-116906524D02*
X156373286Y-115636524D01*
X156857095Y-115636524D01*
X156978048Y-115697000D01*
X157038524Y-115757476D01*
X157099000Y-115878429D01*
X157099000Y-116059857D01*
X157038524Y-116180810D01*
X156978048Y-116241286D01*
X156857095Y-116301762D01*
X156373286Y-116301762D01*
X158248048Y-116906524D02*
X157643286Y-116906524D01*
X157643286Y-115636524D01*
X158913286Y-116301762D02*
X158913286Y-116906524D01*
X158489952Y-115636524D02*
X158913286Y-116301762D01*
X159336619Y-115636524D01*
X159699476Y-115757476D02*
X159759952Y-115697000D01*
X159880904Y-115636524D01*
X160183285Y-115636524D01*
X160304238Y-115697000D01*
X160364714Y-115757476D01*
X160425190Y-115878429D01*
X160425190Y-115999381D01*
X160364714Y-116180810D01*
X159639000Y-116906524D01*
X160425190Y-116906524D01*
X139790714Y-115636524D02*
X139790714Y-116543667D01*
X139730238Y-116725095D01*
X139609286Y-116846048D01*
X139427857Y-116906524D01*
X139306905Y-116906524D01*
X140274524Y-115636524D02*
X140576905Y-116906524D01*
X140818809Y-115999381D01*
X141060714Y-116906524D01*
X141363095Y-115636524D01*
X141786429Y-115757476D02*
X141846905Y-115697000D01*
X141967857Y-115636524D01*
X142270238Y-115636524D01*
X142391191Y-115697000D01*
X142451667Y-115757476D01*
X142512143Y-115878429D01*
X142512143Y-115999381D01*
X142451667Y-116180810D01*
X141725953Y-116906524D01*
X142512143Y-116906524D01*
X142995953Y-116846048D02*
X143177381Y-116906524D01*
X143479762Y-116906524D01*
X143600715Y-116846048D01*
X143661191Y-116785571D01*
X143721667Y-116664619D01*
X143721667Y-116543667D01*
X143661191Y-116422714D01*
X143600715Y-116362238D01*
X143479762Y-116301762D01*
X143237858Y-116241286D01*
X143116905Y-116180810D01*
X143056429Y-116120333D01*
X142995953Y-115999381D01*
X142995953Y-115878429D01*
X143056429Y-115757476D01*
X143116905Y-115697000D01*
X143237858Y-115636524D01*
X143540238Y-115636524D01*
X143721667Y-115697000D01*
X144265953Y-116906524D02*
X144265953Y-115636524D01*
X144991667Y-116906524D01*
X144991667Y-115636524D01*
X145596429Y-116422714D02*
X146564048Y-116422714D01*
X147168810Y-116906524D02*
X147168810Y-115636524D01*
X147471191Y-115636524D01*
X147652619Y-115697000D01*
X147773572Y-115817952D01*
X147834048Y-115938905D01*
X147894524Y-116180810D01*
X147894524Y-116362238D01*
X147834048Y-116604143D01*
X147773572Y-116725095D01*
X147652619Y-116846048D01*
X147471191Y-116906524D01*
X147168810Y-116906524D01*
X149164524Y-116785571D02*
X149104048Y-116846048D01*
X148922619Y-116906524D01*
X148801667Y-116906524D01*
X148620239Y-116846048D01*
X148499286Y-116725095D01*
X148438810Y-116604143D01*
X148378334Y-116362238D01*
X148378334Y-116180810D01*
X148438810Y-115938905D01*
X148499286Y-115817952D01*
X148620239Y-115697000D01*
X148801667Y-115636524D01*
X148922619Y-115636524D01*
X149104048Y-115697000D01*
X149164524Y-115757476D01*
X150313572Y-115636524D02*
X149708810Y-115636524D01*
X149648334Y-116241286D01*
X149708810Y-116180810D01*
X149829762Y-116120333D01*
X150132143Y-116120333D01*
X150253096Y-116180810D01*
X150313572Y-116241286D01*
X150374048Y-116362238D01*
X150374048Y-116664619D01*
X150313572Y-116785571D01*
X150253096Y-116846048D01*
X150132143Y-116906524D01*
X149829762Y-116906524D01*
X149708810Y-116846048D01*
X149648334Y-116785571D01*
X150736905Y-115636524D02*
X151160239Y-116906524D01*
X151583572Y-115636524D01*
D10*
X120149881Y-101457000D02*
X119673690Y-101790334D01*
X120149881Y-102028429D02*
X119149881Y-102028429D01*
X119149881Y-101647476D01*
X119197500Y-101552238D01*
X119245119Y-101504619D01*
X119340357Y-101457000D01*
X119483214Y-101457000D01*
X119578452Y-101504619D01*
X119626071Y-101552238D01*
X119673690Y-101647476D01*
X119673690Y-102028429D01*
X120149881Y-100552238D02*
X120149881Y-101028429D01*
X119149881Y-101028429D01*
X119673690Y-100028429D02*
X120149881Y-100028429D01*
X119149881Y-100361762D02*
X119673690Y-100028429D01*
X119149881Y-99695095D01*
X120149881Y-98837952D02*
X120149881Y-99409381D01*
X120149881Y-99123667D02*
X119149881Y-99123667D01*
X119292738Y-99218905D01*
X119387976Y-99314143D01*
X119435595Y-99409381D01*
X120086381Y-119618000D02*
X119610190Y-119951334D01*
X120086381Y-120189429D02*
X119086381Y-120189429D01*
X119086381Y-119808476D01*
X119134000Y-119713238D01*
X119181619Y-119665619D01*
X119276857Y-119618000D01*
X119419714Y-119618000D01*
X119514952Y-119665619D01*
X119562571Y-119713238D01*
X119610190Y-119808476D01*
X119610190Y-120189429D01*
X120086381Y-118713238D02*
X120086381Y-119189429D01*
X119086381Y-119189429D01*
X119610190Y-118189429D02*
X120086381Y-118189429D01*
X119086381Y-118522762D02*
X119610190Y-118189429D01*
X119086381Y-117856095D01*
X119181619Y-117570381D02*
X119134000Y-117522762D01*
X119086381Y-117427524D01*
X119086381Y-117189428D01*
X119134000Y-117094190D01*
X119181619Y-117046571D01*
X119276857Y-116998952D01*
X119372095Y-116998952D01*
X119514952Y-117046571D01*
X120086381Y-117618000D01*
X120086381Y-116998952D01*
X115085905Y-137124381D02*
X115085905Y-136124381D01*
X115466858Y-136124381D01*
X115562096Y-136172000D01*
X115609715Y-136219619D01*
X115657334Y-136314857D01*
X115657334Y-136457714D01*
X115609715Y-136552952D01*
X115562096Y-136600571D01*
X115466858Y-136648190D01*
X115085905Y-136648190D01*
X116514477Y-136457714D02*
X116514477Y-137124381D01*
X116276381Y-136076762D02*
X116038286Y-136791048D01*
X116657334Y-136791048D01*
M02*
