G04 #@! TF.FileFunction,Soldermask,Bot*
%FSLAX46Y46*%
G04 Gerber Fmt 4.6, Leading zero omitted, Abs format (unit mm)*
G04 Created by KiCad (PCBNEW 4.0.1-3.201512221401+6198~38~ubuntu15.10.1-stable) date Mon 11 Jan 2016 07:04:30 PM EST*
%MOMM*%
G01*
G04 APERTURE LIST*
%ADD10C,0.150000*%
%ADD11R,1.300000X1.300000*%
%ADD12C,1.300000*%
%ADD13R,2.000000X2.000000*%
%ADD14C,2.000000*%
%ADD15C,1.998980*%
%ADD16R,1.998980X1.998980*%
%ADD17R,2.032000X1.727200*%
%ADD18O,2.032000X1.727200*%
%ADD19O,0.899160X1.501140*%
%ADD20O,1.600000X1.600000*%
%ADD21C,1.397000*%
%ADD22C,2.300000*%
%ADD23R,1.200000X1.200000*%
%ADD24C,1.200000*%
%ADD25R,1.524000X1.524000*%
%ADD26C,1.524000*%
%ADD27C,1.778000*%
%ADD28R,1.778000X1.778000*%
%ADD29C,1.750000*%
%ADD30R,1.727200X1.727200*%
%ADD31O,1.727200X1.727200*%
G04 APERTURE END LIST*
D10*
D11*
X156210000Y-130770000D03*
D12*
X156210000Y-128270000D03*
D11*
X138430000Y-130770000D03*
D12*
X138430000Y-128270000D03*
D13*
X156210000Y-123190000D03*
D14*
X156210000Y-125730000D03*
D13*
X138430000Y-123190000D03*
D14*
X138430000Y-125730000D03*
D13*
X169100500Y-92456000D03*
D14*
X169100500Y-94996000D03*
D13*
X169100500Y-98425000D03*
D14*
X169100500Y-100965000D03*
D15*
X123825000Y-107447080D03*
D16*
X133985000Y-107447080D03*
D15*
X123825000Y-110492540D03*
D16*
X133985000Y-110492540D03*
D15*
X171323000Y-125730000D03*
D16*
X161163000Y-125730000D03*
D17*
X118745000Y-114681000D03*
D18*
X118745000Y-112141000D03*
X118745000Y-109601000D03*
X118745000Y-107061000D03*
X118745000Y-104521000D03*
D17*
X170878500Y-121221500D03*
D18*
X170878500Y-118681500D03*
X170878500Y-116141500D03*
D17*
X167322500Y-121221500D03*
D18*
X167322500Y-118681500D03*
X167322500Y-116141500D03*
D19*
X163068000Y-92773500D03*
X161798000Y-92773500D03*
X164338000Y-92773500D03*
X157099000Y-92773500D03*
X155829000Y-92773500D03*
X158369000Y-92773500D03*
X125920500Y-93027500D03*
X124650500Y-93027500D03*
X127190500Y-93027500D03*
X130302000Y-124460000D03*
X129032000Y-124460000D03*
X131572000Y-124460000D03*
D20*
X134112000Y-103251000D03*
X134112000Y-100711000D03*
X134112000Y-98171000D03*
X126492000Y-98171000D03*
X126492000Y-100711000D03*
X126492000Y-103251000D03*
X133985000Y-120142000D03*
X133985000Y-117602000D03*
X133985000Y-115062000D03*
X126365000Y-115062000D03*
X126365000Y-117602000D03*
X126365000Y-120142000D03*
X101600000Y-134112000D03*
X104140000Y-134112000D03*
X106680000Y-134112000D03*
X109220000Y-134112000D03*
X109220000Y-126492000D03*
X106680000Y-126492000D03*
X104140000Y-126492000D03*
X101600000Y-126492000D03*
D21*
X106426000Y-121158000D03*
X106426000Y-123698000D03*
X103378000Y-121158000D03*
X103378000Y-123698000D03*
X100330000Y-121158000D03*
X100330000Y-123698000D03*
X109474000Y-121158000D03*
X109474000Y-123698000D03*
X112522000Y-121158000D03*
X112522000Y-123698000D03*
X166878000Y-130810000D03*
X166878000Y-128270000D03*
X133096000Y-130810000D03*
X133096000Y-128270000D03*
X145986500Y-93980000D03*
X145986500Y-91440000D03*
X149098000Y-93980000D03*
X149098000Y-91440000D03*
X169100500Y-111252000D03*
X169100500Y-108712000D03*
X152209500Y-93980000D03*
X152209500Y-91440000D03*
X142875000Y-93980000D03*
X142875000Y-91440000D03*
X169100500Y-106172000D03*
X169100500Y-103632000D03*
X127000000Y-130810000D03*
X127000000Y-128270000D03*
X130048000Y-130810000D03*
X130048000Y-128270000D03*
X130619500Y-93980000D03*
X130619500Y-91440000D03*
X136779000Y-93980000D03*
X136779000Y-91440000D03*
X133731000Y-93980000D03*
X133731000Y-91440000D03*
X139827000Y-93980000D03*
X139827000Y-91440000D03*
X160655000Y-130810000D03*
X160655000Y-128270000D03*
X163766500Y-130810000D03*
X163766500Y-128270000D03*
X121793000Y-93980000D03*
X121793000Y-91440000D03*
D22*
X176930000Y-130810000D03*
X176930000Y-135890000D03*
X176930000Y-116840000D03*
X176930000Y-121920000D03*
X176930000Y-88900000D03*
X176930000Y-93980000D03*
X176930000Y-100965000D03*
X176930000Y-106045000D03*
D23*
X97536000Y-128524000D03*
D24*
X97536000Y-131024000D03*
D25*
X114173000Y-89535000D03*
D26*
X114173000Y-86995000D03*
X116713000Y-89535000D03*
X116713000Y-86995000D03*
X119253000Y-89535000D03*
X119253000Y-86995000D03*
X121793000Y-89535000D03*
X121793000Y-86995000D03*
X124333000Y-89535000D03*
X124333000Y-86995000D03*
X126873000Y-89535000D03*
X126873000Y-86995000D03*
X129413000Y-89535000D03*
X129413000Y-86995000D03*
X131953000Y-89535000D03*
X131953000Y-86995000D03*
X134493000Y-89535000D03*
X134493000Y-86995000D03*
X137033000Y-89535000D03*
X137033000Y-86995000D03*
X139573000Y-89535000D03*
X139573000Y-86995000D03*
X142113000Y-89535000D03*
X142113000Y-86995000D03*
X144653000Y-89535000D03*
X144653000Y-86995000D03*
X147193000Y-89535000D03*
X147193000Y-86995000D03*
X149733000Y-89535000D03*
X149733000Y-86995000D03*
X152273000Y-89535000D03*
X152273000Y-86995000D03*
X154813000Y-89535000D03*
X154813000Y-86995000D03*
X157353000Y-89535000D03*
X157353000Y-86995000D03*
X159893000Y-89535000D03*
X159893000Y-86995000D03*
X162433000Y-89535000D03*
X162433000Y-86995000D03*
X164973000Y-89535000D03*
X164973000Y-86995000D03*
X167513000Y-89535000D03*
X167513000Y-86995000D03*
X170053000Y-89535000D03*
X170053000Y-86995000D03*
X114173000Y-135255000D03*
X116713000Y-137795000D03*
X116713000Y-135255000D03*
X119253000Y-137795000D03*
X119253000Y-135255000D03*
X121793000Y-137795000D03*
X121793000Y-135255000D03*
X124333000Y-137795000D03*
X124333000Y-135255000D03*
X126873000Y-137795000D03*
X126873000Y-135255000D03*
X129413000Y-137795000D03*
X129413000Y-135255000D03*
X131953000Y-137795000D03*
X131953000Y-135255000D03*
X134493000Y-137795000D03*
X134493000Y-135255000D03*
X137033000Y-137795000D03*
X137033000Y-135255000D03*
X139573000Y-137795000D03*
X139573000Y-135255000D03*
X142113000Y-137795000D03*
X142113000Y-135255000D03*
X144653000Y-137795000D03*
X144653000Y-135255000D03*
X147193000Y-137795000D03*
X147193000Y-135255000D03*
X149733000Y-137795000D03*
X149733000Y-135255000D03*
X152273000Y-137795000D03*
X152273000Y-135255000D03*
X154813000Y-137795000D03*
X154813000Y-135255000D03*
X157353000Y-137795000D03*
X157353000Y-135255000D03*
X159893000Y-137795000D03*
X159893000Y-135255000D03*
X162433000Y-137795000D03*
X162433000Y-135255000D03*
X164973000Y-137795000D03*
X164973000Y-135255000D03*
X167513000Y-137795000D03*
X167513000Y-135255000D03*
X170053000Y-137795000D03*
X170053000Y-135255000D03*
D25*
X114173000Y-137795000D03*
D27*
X149860000Y-130810000D03*
D28*
X147320000Y-130810000D03*
D27*
X144780000Y-130810000D03*
D29*
X101818000Y-96595000D03*
X97318000Y-96595000D03*
X101818000Y-90095000D03*
X97318000Y-90095000D03*
X110708000Y-96595000D03*
X106208000Y-96595000D03*
X110708000Y-90095000D03*
X106208000Y-90095000D03*
D13*
X122872500Y-102044500D03*
D14*
X122872500Y-99504500D03*
D13*
X122872500Y-116205000D03*
D14*
X122872500Y-118745000D03*
D30*
X115824000Y-131572000D03*
D31*
X113284000Y-131572000D03*
X115824000Y-129032000D03*
X113284000Y-129032000D03*
M02*
